<svg width="314" height="199" viewBox="0 0 314 199" fill="none" xmlns="http://www.w3.org/2000/svg">
<rect width="314" height="199" rx="4" fill="#181818"/>
<g opacity="0.34">
<g opacity="0.6">
<path d="M269.212 125.137C271.312 134.41 270.956 142.903 268.154 151.986C264.648 163.351 256.742 173.921 245.447 180.43C241.483 182.715 237.227 184.432 232.794 185.653C232.071 186.805 231.288 187.921 230.457 189H268.286C277.907 177.548 283.419 162.866 284.287 147.926C284.522 143.885 284.417 139.825 283.961 135.806C282.196 120.227 275.291 105.384 264.924 93.6086C264.771 94.436 264.64 95.266 264.545 96.1C263.414 106.02 267.055 115.617 269.212 125.137Z" fill="url(#paint0_linear_31_259)"/>
</g>
<g opacity="0.41">
<path d="M152.089 186.693C149.871 183.626 148.134 179.717 145.78 176.586C140.739 177.611 135.76 179.107 130.725 180.397C120.422 183.037 109.807 185.001 99.1738 185.147C87.3593 185.309 75.312 183.032 65.0361 176.961C57.1997 172.332 50.3083 165.259 46.582 156.815C47.6222 168.462 51.8455 179.819 58.9619 189H153.879C153.258 188.251 152.66 187.483 152.089 186.693Z" fill="url(#paint1_linear_31_259)"/>
</g>
<g opacity="0.41">
<path d="M167.056 26.9063C169.927 26.8089 173.013 26.6369 176.381 26.382C192.097 25.1923 207.665 28.7729 222.761 33.7179C224.217 34.1947 225.666 34.7084 227.104 35.2563C220.603 28.1057 212.314 22.5426 203.192 19.3818C185.139 13.1265 163.246 15.6135 147.344 25.4639C153.878 25.4805 160.454 25.9736 167.056 26.9063Z" fill="url(#paint2_linear_31_259)"/>
</g>
<g opacity="0.35">
<path d="M64.6531 177.08C74.8997 183.013 86.9356 185.279 98.7509 185.181C109.385 185.093 120.009 183.244 130.325 180.737C135.366 179.512 140.352 178.088 145.398 177.12C143.337 174.436 140.793 172.334 137.01 171.885C122.374 170.145 106.973 176.178 92.4017 177.203C82.611 177.892 72.2105 176.565 64.2973 170.71C59.1642 166.913 55.4187 161.44 52.8655 155.558C47.5678 143.354 47.4257 129.35 51.9008 116.876C54.9291 108.434 62.2873 102.018 64.8611 93.4168C67.0111 86.2323 64.5193 78.7333 65.2221 71.4712C65.3656 69.9902 65.6415 68.5192 66.117 67.0628C68.6373 59.3431 80.7413 48.1898 88.1596 44.4631C105.938 35.5318 124.493 31.187 143.415 30.7434C132.659 28.9444 122.478 25.709 104.449 21.8788C83.0326 17.3291 58.9729 33.0461 46.336 51.3299C45.0471 53.1944 43.914 55.1527 42.937 57.1808C38.5663 66.2569 37.3327 76.7399 39.359 86.5561C41.7411 98.0958 49.1041 106.989 46.4724 119.275C44.8694 126.757 44.443 133.695 43.6121 141.103C42.9629 146.892 44.032 152.427 46.2969 157.467C49.9819 165.668 56.8396 172.556 64.6531 177.08Z" fill="url(#paint3_linear_31_259)"/>
</g>
<g opacity="0.47">
<path d="M176.381 26.3822C173.013 26.6371 169.927 26.809 167.056 26.9064C176.807 28.2844 186.613 30.6213 196.421 33.847C196.423 33.8474 233.074 45.9014 233.074 45.9014C250.299 51.5666 261.717 68.0759 260.644 86.1773C260.637 86.2961 260.629 86.4155 260.621 86.5343C259.935 97.027 256.436 107.312 250.657 115.937C245.424 123.746 238.202 132.48 236.394 142.065C234.953 149.702 238.065 157.422 238.443 165.195C238.803 172.585 236.595 179.597 232.794 185.653C237.227 184.432 241.482 182.715 245.447 180.43C256.742 173.921 264.648 163.351 268.154 151.986C270.956 142.904 271.312 134.41 269.211 125.137C267.055 115.617 263.414 106.019 264.545 96.0996C264.639 95.2661 264.77 94.4361 264.924 93.6083C266.042 87.574 268.425 81.6789 267.915 75.582C267.531 70.9753 265.502 66.6533 263.022 62.752C254.788 49.8018 241.504 40.7437 227.104 35.2561C225.666 34.7081 224.217 34.1944 222.761 33.7176C207.665 28.7735 192.097 25.1925 176.381 26.3822Z" fill="url(#paint4_linear_31_259)"/>
</g>
<g opacity="0.7">
<path d="M65.9498 63.4086C65.4817 64.9142 65.2128 66.4339 65.0768 67.9631C64.4105 75.4613 66.9391 83.1884 64.825 90.6141C62.2942 99.5042 54.9685 106.164 51.9823 114.892C47.5695 127.79 47.7814 142.242 53.1405 154.81C55.723 160.867 59.4958 166.496 64.6482 170.389C72.5908 176.391 82.9974 177.707 92.7846 176.946C107.351 175.813 122.721 169.507 137.366 171.226C141.151 171.671 143.705 173.827 145.78 176.586C148.134 179.717 149.87 183.625 152.089 186.693C152.66 187.483 153.258 188.251 153.878 189H230.456C231.288 187.921 232.071 186.806 232.794 185.653C236.595 179.597 238.803 172.585 238.443 165.195C238.064 157.422 234.952 149.702 236.393 142.065C238.201 132.48 245.423 123.746 250.656 115.937C256.436 107.312 259.935 97.0269 260.621 86.5343C260.629 86.4154 260.636 86.2965 260.643 86.1772C261.716 68.0759 250.299 51.5661 233.073 45.9013C233.073 45.9013 196.422 33.8474 196.421 33.8469C186.612 30.6212 176.806 28.2843 167.056 26.9064C160.454 25.9733 153.878 25.4802 147.344 25.464C145.915 25.4605 144.489 25.4841 143.065 25.5263C124.145 26.0821 105.613 30.6616 87.8792 39.9711C80.4793 43.8553 68.4311 55.4284 65.9498 63.4086Z" fill="url(#paint5_linear_31_259)"/>
</g>
<g opacity="0.35">
<path d="M133.634 21.9184C136.925 21.9184 139.593 19.2504 139.593 15.9592C139.593 12.668 136.925 10 133.634 10C130.342 10 127.674 12.668 127.674 15.9592C127.674 19.2504 130.342 21.9184 133.634 21.9184Z" fill="url(#paint6_linear_31_259)"/>
</g>
<g opacity="0.35">
<path d="M294.698 100.293C302.13 100.293 308.155 94.2683 308.155 86.836C308.155 79.4037 302.13 73.3787 294.698 73.3787C287.265 73.3787 281.24 79.4037 281.24 86.836C281.24 94.2683 287.265 100.293 294.698 100.293Z" fill="url(#paint7_linear_31_259)"/>
</g>
<g opacity="0.35">
<path d="M33.5498 122.975C39.2667 118.226 40.0512 109.742 35.302 104.025C30.5528 98.3078 22.0683 97.5234 16.3514 102.273C10.6345 107.022 9.85001 115.506 14.5992 121.223C19.3485 126.94 27.8329 127.725 33.5498 122.975Z" fill="url(#paint8_linear_31_259)"/>
</g>
<g opacity="0.35">
<path d="M238.763 32.6119C241.021 32.6119 242.852 30.7816 242.852 28.5237C242.852 26.2659 241.021 24.4355 238.763 24.4355C236.506 24.4355 234.675 26.2659 234.675 28.5237C234.675 30.7816 236.506 32.6119 238.763 32.6119Z" fill="url(#paint9_linear_31_259)"/>
</g>
</g>
<path d="M287.942 187.324H34.7776C34.4951 187.324 34.2661 187.095 34.2661 186.812V186.619C34.2661 186.337 34.4951 186.108 34.7776 186.108H287.942C288.225 186.108 288.454 186.337 288.454 186.619V186.812C288.454 187.095 288.225 187.324 287.942 187.324Z" fill="#233863" stroke="#233863" stroke-width="3" stroke-miterlimit="10"/>
<g opacity="0.57">
<path d="M107.075 158.17C106.833 158.17 106.637 157.972 106.637 157.727C106.637 142.562 112.92 127.912 123.876 117.533C125.814 115.698 127.902 113.991 130.083 112.46C130.281 112.321 130.555 112.37 130.693 112.571C130.831 112.772 130.782 113.048 130.583 113.188C128.438 114.694 126.384 116.374 124.477 118.18C113.697 128.392 107.515 142.806 107.515 157.727C107.514 157.972 107.318 158.17 107.075 158.17Z" fill="#3AAED5"/>
<path d="M215.273 158.17C215.03 158.17 214.834 157.972 214.834 157.727C214.834 151.538 213.81 145.469 211.791 139.689C211.71 139.458 211.83 139.205 212.058 139.124C212.287 139.044 212.537 139.164 212.618 139.394C214.67 145.27 215.711 151.438 215.711 157.727C215.711 157.972 215.515 158.17 215.273 158.17Z" fill="#3AAED5"/>
<path d="M211.035 136.932C210.864 136.932 210.702 136.83 210.631 136.661C206.413 126.568 199.35 118.086 190.205 112.132C190.002 112 189.943 111.725 190.074 111.52C190.206 111.314 190.477 111.254 190.681 111.388C199.974 117.438 207.152 126.059 211.439 136.317C211.533 136.543 211.429 136.802 211.205 136.897C211.15 136.921 211.092 136.932 211.035 136.932Z" fill="#3AAED5"/>
<path d="M133.883 110.975C133.732 110.975 133.586 110.897 133.504 110.756C133.382 110.544 133.452 110.273 133.661 110.149C141.974 105.234 151.487 102.635 161.173 102.635C169.241 102.635 177.008 104.373 184.259 107.8C184.478 107.904 184.573 108.168 184.47 108.39C184.367 108.611 184.106 108.707 183.887 108.603C176.753 105.232 169.111 103.522 161.173 103.522C151.643 103.522 142.283 106.079 134.104 110.914C134.035 110.956 133.959 110.975 133.883 110.975Z" fill="#3AAED5"/>
<path d="M97.446 158.17C97.2034 158.17 97.0073 157.972 97.0073 157.727C97.0073 132.028 112.056 108.73 135.346 98.3735C135.571 98.2734 135.827 98.3766 135.925 98.6004C136.022 98.8242 135.922 99.0861 135.7 99.1845C112.728 109.399 97.8847 132.379 97.8847 157.727C97.8847 157.972 97.6882 158.17 97.446 158.17Z" fill="#3AAED5"/>
<path d="M224.902 158.169C224.659 158.169 224.463 157.971 224.463 157.726C224.463 137.571 214.882 118.361 198.833 106.339C198.639 106.193 198.598 105.916 198.742 105.719C198.887 105.523 199.162 105.482 199.356 105.627C207.241 111.533 213.778 119.304 218.261 128.098C222.958 137.317 225.341 147.285 225.341 157.726C225.341 157.971 225.144 158.169 224.902 158.169Z" fill="#3AAED5"/>
<path d="M195.297 103.792C195.216 103.792 195.135 103.77 195.062 103.723C193.765 102.89 192.42 102.095 191.065 101.36C190.851 101.245 190.771 100.976 190.886 100.76C191 100.545 191.266 100.463 191.48 100.58C192.853 101.324 194.217 102.131 195.533 102.975C195.737 103.106 195.798 103.38 195.668 103.586C195.584 103.719 195.442 103.792 195.297 103.792Z" fill="#3AAED5"/>
<path d="M188.464 99.9792C188.401 99.9792 188.337 99.9655 188.276 99.9363C179.775 95.8606 170.656 93.7943 161.174 93.7943C154.239 93.7943 147.422 94.9198 140.913 97.14C140.68 97.2184 140.434 97.0939 140.357 96.8622C140.279 96.6304 140.403 96.3787 140.632 96.3007C147.231 94.0495 154.143 92.908 161.173 92.908C170.787 92.908 180.032 95.0036 188.652 99.1359C188.871 99.241 188.965 99.5051 188.861 99.7262C188.786 99.8857 188.628 99.9792 188.464 99.9792Z" fill="#3AAED5"/>
<path d="M235.576 158.169C235.334 158.169 235.138 157.971 235.138 157.726C235.138 149.499 233.822 141.413 231.228 133.695C231.151 133.463 231.274 133.211 231.503 133.132C231.733 133.054 231.982 133.178 232.06 133.41C234.684 141.22 236.015 149.401 236.015 157.726C236.015 157.971 235.818 158.169 235.576 158.169Z" fill="#3AAED5"/>
<path d="M230.092 129.796C229.919 129.796 229.755 129.692 229.686 129.521C224.462 116.587 215.758 105.402 204.515 97.1762C204.319 97.0326 204.275 96.7556 204.417 96.5576C204.558 96.359 204.832 96.3147 205.029 96.4583C216.406 104.782 225.212 116.099 230.498 129.186C230.589 129.413 230.481 129.672 230.257 129.764C230.203 129.786 230.147 129.796 230.092 129.796Z" fill="#3AAED5"/>
<path d="M200.505 94.3605C200.426 94.3605 200.346 94.3388 200.274 94.2936C188.565 86.9134 175.044 83.012 161.174 83.012C154.922 83.012 148.711 83.8012 142.714 85.3576C142.48 85.4178 142.24 85.276 142.18 85.0385C142.119 84.8014 142.261 84.5599 142.495 84.4987C148.564 82.9238 154.848 82.1252 161.174 82.1252C175.208 82.1252 188.89 86.0728 200.738 93.5407C200.944 93.6705 201.006 93.9439 200.878 94.1513C200.795 94.2865 200.652 94.3605 200.505 94.3605Z" fill="#3AAED5"/>
<path d="M128.459 90.6482C128.297 90.6482 128.141 90.5569 128.065 90.4C127.958 90.1802 128.048 89.9147 128.265 89.8071C130.553 88.6744 132.922 87.6503 135.307 86.7626C135.534 86.6785 135.786 86.7954 135.87 87.0254C135.954 87.2554 135.838 87.5098 135.61 87.5944C133.253 88.4714 130.912 89.4836 128.652 90.603C128.59 90.6335 128.524 90.6482 128.459 90.6482Z" fill="#3AAED5"/>
<path d="M86.7717 158.169C86.5291 158.169 86.333 157.971 86.333 157.726C86.333 144.301 89.8614 131.115 96.5361 119.594C103.015 108.412 112.286 99.0351 123.349 92.4774C123.558 92.3538 123.826 92.4243 123.949 92.6352C124.071 92.8466 124.001 93.1178 123.792 93.2419C101.228 106.619 87.2104 131.328 87.2104 157.726C87.2104 157.971 87.0139 158.169 86.7717 158.169Z" fill="#3AAED5"/>
</g>
<g opacity="0.22">
<path d="M78.9193 154.429C78.556 154.429 78.2612 154.131 78.2612 153.765C78.2612 141.983 80.635 130.59 85.3167 119.903C89.8396 109.58 96.2836 100.413 104.47 92.6582C107.418 89.8664 110.592 87.2713 113.905 84.9448C114.204 84.7352 114.613 84.8092 114.821 85.1114C115.028 85.4128 114.955 85.8271 114.656 86.0363C111.395 88.326 108.271 90.8803 105.371 93.6278C88.9785 109.155 79.5773 131.074 79.5773 153.764C79.5773 154.131 79.2825 154.429 78.9193 154.429Z" fill="#3AAED5"/>
<path d="M243.428 154.429C243.065 154.429 242.77 154.132 242.77 153.765C242.77 144.355 241.213 135.126 238.143 126.336C238.022 125.99 238.202 125.61 238.545 125.487C238.887 125.367 239.263 125.547 239.384 125.893C242.504 134.827 244.086 144.204 244.086 153.765C244.086 154.132 243.791 154.429 243.428 154.429Z" fill="#3AAED5"/>
<path d="M236.987 122.139C236.73 122.139 236.486 121.987 236.38 121.733C229.966 106.385 219.227 93.4877 205.321 84.4337C205.016 84.2348 204.927 83.8235 205.125 83.5151C205.322 83.2058 205.731 83.118 206.034 83.3166C220.163 92.5158 231.075 105.621 237.592 121.217C237.733 121.555 237.577 121.945 237.241 122.087C237.158 122.122 237.072 122.139 236.987 122.139Z" fill="#3AAED5"/>
<path d="M119.679 82.6724C119.453 82.6724 119.233 82.5545 119.111 82.3435C118.927 82.0267 119.033 81.6194 119.346 81.4342C131.984 73.9614 146.447 70.0112 161.173 70.0112C173.438 70.0112 185.247 72.6528 196.27 77.8633C196.599 78.0189 196.741 78.4146 196.587 78.747C196.433 79.0798 196.042 79.2229 195.712 79.0674C184.865 73.9402 173.244 71.3407 161.173 71.3407C146.681 71.3407 132.448 75.2275 120.011 82.5815C119.907 82.6431 119.792 82.6724 119.679 82.6724Z" fill="#3AAED5"/>
<path d="M64.2782 154.429C63.9149 154.429 63.6201 154.131 63.6201 153.765C63.6201 114.693 86.4992 79.2735 121.908 63.5285C122.242 63.3809 122.629 63.5334 122.776 63.8693C122.922 64.2052 122.771 64.5978 122.438 64.7458C87.5069 80.2785 64.9362 115.221 64.9362 153.765C64.9362 154.131 64.6414 154.429 64.2782 154.429Z" fill="#3AAED5"/>
<path d="M258.069 154.429C257.705 154.429 257.41 154.131 257.41 153.764C257.41 123.116 242.842 93.9048 218.438 75.6259C218.146 75.407 218.085 74.9909 218.301 74.6957C218.518 74.4006 218.93 74.339 219.222 74.5575C231.21 83.5374 241.149 95.3508 247.963 108.721C255.105 122.736 258.727 137.891 258.727 153.764C258.727 154.131 258.432 154.429 258.069 154.429Z" fill="#3AAED5"/>
<path d="M213.058 71.7506C212.937 71.7506 212.815 71.7174 212.705 71.6469C210.728 70.3786 208.683 69.1702 206.626 68.0548C206.306 67.8811 206.186 67.4782 206.358 67.1547C206.53 66.8312 206.93 66.7107 207.248 66.8835C209.334 68.014 211.407 69.2393 213.411 70.5249C213.718 70.7216 213.808 71.1324 213.614 71.4422C213.488 71.6416 213.275 71.7506 213.058 71.7506Z" fill="#3AAED5"/>
<path d="M202.668 65.9549C202.573 65.9549 202.477 65.934 202.386 65.8906C189.459 59.6932 175.593 56.5509 161.174 56.5509C150.628 56.5509 140.263 58.2627 130.366 61.6386C130.022 61.7561 129.648 61.5691 129.532 61.2216C129.415 60.8738 129.6 60.4966 129.945 60.3792C139.978 56.9568 150.485 55.2214 161.174 55.2214C175.79 55.2214 189.846 58.4068 202.951 64.6897C203.279 64.847 203.419 65.2432 203.263 65.5751C203.151 65.8144 202.915 65.9549 202.668 65.9549Z" fill="#3AAED5"/>
<path d="M274.298 154.429C273.935 154.429 273.64 154.131 273.64 153.764C273.64 141.253 271.64 128.958 267.697 117.223C267.58 116.875 267.764 116.498 268.108 116.38C268.452 116.262 268.826 116.448 268.943 116.796C272.933 128.669 274.956 141.107 274.956 153.764C274.956 154.131 274.662 154.429 274.298 154.429Z" fill="#3AAED5"/>
<path d="M265.961 111.291C265.702 111.291 265.456 111.135 265.351 110.877C257.409 91.2114 244.174 74.2048 227.078 61.6956C226.783 61.4803 226.718 61.0646 226.931 60.7673C227.144 60.4695 227.556 60.4039 227.85 60.6188C245.145 73.2737 258.534 90.4793 266.57 110.375C266.707 110.715 266.546 111.103 266.21 111.242C266.128 111.275 266.044 111.291 265.961 111.291Z" fill="#3AAED5"/>
<path d="M220.976 57.4099C220.857 57.4099 220.736 57.3775 220.628 57.3089C202.824 46.0866 182.265 40.1551 161.174 40.1551C151.668 40.1551 142.224 41.3552 133.105 43.7216C132.752 43.8137 132.394 43.5984 132.304 43.2434C132.213 42.888 132.425 42.5255 132.777 42.4342C142.003 40.0399 151.558 38.8257 161.174 38.8257C182.512 38.8257 203.312 44.8272 221.325 56.1815C221.633 56.3756 221.727 56.7859 221.534 57.097C221.41 57.2991 221.195 57.4099 220.976 57.4099Z" fill="#3AAED5"/>
<path d="M111.433 51.7662C111.189 51.7662 110.956 51.6292 110.841 51.3939C110.681 51.0642 110.816 50.6658 111.142 50.5045C114.617 48.7833 118.218 47.2261 121.847 45.8759C122.188 45.7496 122.567 45.9255 122.692 46.2698C122.818 46.6141 122.643 46.9966 122.302 47.1233C118.715 48.4576 115.155 49.9967 111.721 51.6979C111.629 51.7444 111.53 51.7662 111.433 51.7662Z" fill="#3AAED5"/>
<path d="M48.0487 154.429C47.6854 154.429 47.3906 154.131 47.3906 153.764C47.3906 133.353 52.755 113.307 62.9028 95.7911C72.7523 78.7907 86.8479 64.5347 103.667 54.5648C103.979 54.3795 104.383 54.4846 104.567 54.8014C104.751 55.1178 104.646 55.5255 104.332 55.7112C70.0214 76.0516 48.7067 113.623 48.7067 153.764C48.7067 154.131 48.4119 154.429 48.0487 154.429Z" fill="#3AAED5"/>
</g>
<path d="M183.195 163.449C182.693 163.449 182.192 163.341 181.722 163.125C180.846 162.723 180.178 161.997 179.844 161.082L178.771 158.146C176.417 158.546 174.054 158.477 171.738 157.938L170.448 160.81C170.047 161.703 169.33 162.386 168.428 162.734C167.526 163.082 166.546 163.054 165.669 162.652C163.863 161.824 163.066 159.651 163.894 157.807L165.184 154.934C163.255 153.528 161.648 151.778 160.397 149.725L157.503 150.842C156.599 151.191 155.62 151.163 154.743 150.761C153.867 150.359 153.2 149.633 152.865 148.717C152.175 146.829 153.128 144.71 154.988 143.992L157.889 142.871C157.513 140.476 157.602 138.068 158.153 135.702L155.347 134.417C153.54 133.589 152.743 131.415 153.571 129.571C153.972 128.678 154.689 127.995 155.591 127.647C156.493 127.299 157.474 127.327 158.35 127.729L161.157 129.015C162.556 127.038 164.291 125.385 166.323 124.093L165.247 121.15C164.557 119.262 165.509 117.143 167.369 116.424C168.273 116.075 169.252 116.104 170.128 116.505C171.004 116.906 171.672 117.632 172.007 118.549L173.08 121.485C175.433 121.084 177.795 121.153 180.113 121.692L181.403 118.82C182.231 116.977 184.375 116.15 186.181 116.978C187.058 117.379 187.725 118.105 188.06 119.021C188.394 119.936 188.358 120.931 187.957 121.823L186.667 124.695C188.594 126.101 190.203 127.851 191.454 129.905L194.348 128.787C195.251 128.438 196.231 128.467 197.107 128.869C197.984 129.27 198.651 129.996 198.986 130.912C199.675 132.799 198.723 134.919 196.863 135.637L193.962 136.758C194.338 139.154 194.249 141.562 193.698 143.927L196.504 145.213C198.311 146.041 199.108 148.214 198.28 150.058C197.451 151.902 195.308 152.729 193.501 151.9L190.695 150.615C189.296 152.591 187.56 154.244 185.529 155.536L186.605 158.479C187.295 160.367 186.342 162.487 184.483 163.205C184.063 163.369 183.629 163.449 183.195 163.449ZM179.338 157.139L180.667 160.774C180.919 161.467 181.423 162.015 182.084 162.317C182.745 162.621 183.486 162.642 184.167 162.379C185.581 161.833 186.304 160.222 185.78 158.788L184.454 155.16L184.765 154.971C186.927 153.654 188.749 151.918 190.182 149.81L190.39 149.503L193.863 151.094C195.228 151.721 196.85 151.092 197.48 149.694C198.108 148.295 197.507 146.647 196.141 146.022L192.668 144.43L192.76 144.07C193.387 141.593 193.48 139.064 193.037 136.553L192.973 136.192L196.548 134.811C197.962 134.265 198.685 132.654 198.161 131.22C197.908 130.527 197.404 129.979 196.743 129.677C196.083 129.373 195.343 129.353 194.66 129.615L191.077 131L190.888 130.677C189.613 128.488 187.924 126.649 185.867 125.211L185.566 125.001L187.157 121.458C187.462 120.779 187.49 120.023 187.236 119.329C186.983 118.637 186.479 118.088 185.818 117.786C184.452 117.158 182.829 117.788 182.201 119.186L180.61 122.729L180.255 122.639C177.828 122.022 175.346 121.949 172.876 122.422L172.511 122.491L171.183 118.856C170.929 118.164 170.426 117.616 169.765 117.313C169.104 117.01 168.364 116.988 167.682 117.252C166.268 117.798 165.545 119.409 166.069 120.843L167.395 124.471L167.084 124.66C164.922 125.977 163.099 127.713 161.667 129.821L161.459 130.127L157.987 128.536C157.325 128.232 156.586 128.211 155.903 128.475C155.219 128.739 154.674 129.258 154.37 129.937C153.741 131.335 154.342 132.983 155.708 133.61L159.181 135.2L159.09 135.561C158.462 138.037 158.369 140.566 158.812 143.077L158.876 143.438L155.301 144.819C153.887 145.365 153.163 146.976 153.688 148.41C153.941 149.103 154.444 149.651 155.105 149.954C155.767 150.257 156.507 150.278 157.188 150.015L160.772 148.63L160.961 148.953C162.234 151.142 163.924 152.98 165.982 154.419L166.283 154.629L164.692 158.173C164.063 159.571 164.664 161.218 166.031 161.845C166.693 162.148 167.432 162.169 168.114 161.906C168.799 161.641 169.343 161.122 169.648 160.444L171.239 156.901L171.595 156.991C174.02 157.608 176.503 157.68 178.973 157.208L179.338 157.139ZM175.794 153.387C173.971 153.387 172.124 153.005 170.364 152.198C167.124 150.713 164.658 148.03 163.419 144.64C162.181 141.252 162.317 137.566 163.802 134.26C165.287 130.953 167.943 128.422 171.283 127.132C174.623 125.842 178.247 125.949 181.486 127.433C188.17 130.496 191.114 138.543 188.048 145.371C185.789 150.4 180.89 153.387 175.794 153.387ZM176.041 127.124C174.544 127.124 173.042 127.402 171.596 127.96C168.474 129.167 165.99 131.534 164.601 134.627C163.212 137.719 163.085 141.167 164.243 144.334C165.4 147.499 167.703 150.006 170.726 151.391C176.971 154.254 184.382 151.388 187.248 145.005C190.115 138.623 187.367 131.102 181.123 128.241C179.501 127.497 177.774 127.124 176.041 127.124Z" fill="white"/>
<path d="M139.874 156.953C139.213 156.953 138.592 156.697 138.122 156.232C137.641 155.756 137.375 155.118 137.372 154.436L137.364 152.506C135.888 152.216 134.504 151.66 133.24 150.85L131.891 152.242C131.417 152.731 130.785 153.006 130.111 153.017C129.415 153.039 128.799 152.771 128.318 152.296C127.838 151.821 127.572 151.183 127.568 150.5C127.565 149.82 127.825 149.176 128.298 148.687L129.647 147.296C128.82 146.036 128.241 144.649 127.923 143.166L126.013 143.196C125.348 143.194 124.7 142.951 124.22 142.476C123.739 142 123.473 141.363 123.47 140.681C123.464 139.276 124.59 138.115 125.98 138.092L127.898 138.061C128.202 136.565 128.768 135.157 129.586 133.869L128.228 132.525C127.748 132.05 127.482 131.412 127.479 130.729C127.475 130.048 127.735 129.404 128.209 128.916C128.682 128.427 129.314 128.152 129.988 128.141C130.681 128.138 131.3 128.386 131.781 128.862L133.139 130.205C134.397 129.352 135.779 128.751 137.254 128.413L137.245 126.475C137.239 125.07 138.365 123.91 139.755 123.887C140.437 123.887 141.067 124.133 141.547 124.608C142.028 125.083 142.294 125.721 142.297 126.403L142.306 128.333C143.782 128.623 145.166 129.179 146.43 129.989L147.779 128.597V128.598C148.252 128.109 148.885 127.833 149.558 127.823C150.236 127.801 150.871 128.067 151.352 128.543C152.342 129.523 152.35 131.142 151.371 132.152L150.022 133.544C150.85 134.805 151.429 136.191 151.746 137.674L153.657 137.643C154.345 137.649 154.97 137.888 155.45 138.363C155.93 138.839 156.196 139.477 156.199 140.159C156.206 141.563 155.08 142.724 153.69 142.747L151.772 142.778C151.468 144.275 150.902 145.682 150.084 146.971L151.441 148.314C152.432 149.295 152.44 150.914 151.461 151.924C150.988 152.413 150.355 152.688 149.682 152.698C149.01 152.716 148.37 152.454 147.889 151.978L146.531 150.635C145.272 151.488 143.89 152.089 142.416 152.426L142.425 154.364C142.431 155.769 141.305 156.929 139.915 156.952C139.901 156.952 139.888 156.953 139.874 156.953ZM133.122 149.705L133.425 149.913C134.767 150.832 136.263 151.432 137.872 151.697L138.238 151.758L138.25 154.432C138.252 154.876 138.424 155.29 138.736 155.599C139.041 155.901 139.444 156.067 139.874 156.067C139.883 156.067 139.892 156.066 139.901 156.066C140.813 156.052 141.552 155.29 141.547 154.369L141.535 151.703L141.891 151.633C143.497 151.315 144.989 150.665 146.324 149.702L146.623 149.486L148.502 151.345C148.814 151.654 149.225 151.829 149.667 151.813C150.109 151.806 150.523 151.625 150.834 151.305C151.475 150.644 151.472 149.587 150.827 148.949L148.947 147.09L149.155 146.783C150.08 145.415 150.693 143.895 150.974 142.266L151.037 141.906L153.676 141.863C154.588 141.848 155.326 141.087 155.322 140.165C155.32 139.721 155.147 139.306 154.836 138.998C154.531 138.696 154.128 138.531 153.698 138.531C153.689 138.531 153.68 138.531 153.671 138.531L151.024 138.574L150.956 138.206C150.661 136.588 150.036 135.089 149.098 133.752L148.886 133.45L150.744 131.534C151.385 130.873 151.382 129.816 150.737 129.179C150.426 128.87 150.019 128.683 149.572 128.711C149.131 128.718 148.717 128.899 148.406 129.22V129.22L146.548 131.136L146.245 130.928C144.903 130.01 143.407 129.409 141.799 129.144L141.432 129.083L141.42 126.409C141.418 125.965 141.246 125.55 140.934 125.242C140.629 124.94 140.226 124.774 139.797 124.774C139.787 124.774 139.778 124.775 139.769 124.775C138.857 124.789 138.119 125.551 138.123 126.472L138.135 129.138L137.779 129.209C136.173 129.526 134.681 130.176 133.346 131.139L133.047 131.355L131.167 129.495C130.856 129.187 130.444 129.019 130.003 129.028C129.561 129.036 129.147 129.216 128.836 129.536C128.525 129.858 128.355 130.28 128.357 130.726C128.359 131.17 128.531 131.584 128.843 131.892L130.723 133.752L130.515 134.059C129.589 135.427 128.977 136.947 128.695 138.575L128.633 138.936L125.994 138.979C125.082 138.994 124.343 139.756 124.348 140.677C124.35 141.121 124.522 141.535 124.834 141.843C125.145 142.151 125.554 142.309 125.999 142.311L128.645 142.268L128.713 142.636C129.009 144.255 129.634 145.753 130.571 147.089L130.782 147.392L128.924 149.308C128.613 149.629 128.443 150.051 128.445 150.497C128.447 150.941 128.62 151.355 128.931 151.663C129.243 151.972 129.649 152.146 130.096 152.131C130.537 152.124 130.951 151.943 131.263 151.622L133.122 149.705ZM139.733 149.455C137.399 149.455 135.206 148.554 133.542 146.909C130.039 143.442 130.011 137.71 133.48 134.132C135.161 132.4 137.401 131.425 139.789 131.386C142.194 131.339 144.43 132.251 146.127 133.931C147.825 135.611 148.767 137.866 148.778 140.28C148.788 142.692 147.869 144.975 146.189 146.707C144.509 148.44 142.269 149.416 139.881 149.454C139.832 149.455 139.783 149.455 139.733 149.455ZM139.936 132.271C139.891 132.271 139.847 132.271 139.803 132.272C137.647 132.307 135.624 133.188 134.107 134.753C130.976 137.982 130.998 143.151 134.156 146.276C135.685 147.789 137.71 148.591 139.867 148.569C142.022 148.534 144.044 147.653 145.562 146.087H145.562C147.08 144.523 147.91 142.461 147.9 140.284C147.89 138.109 147.042 136.077 145.513 134.564C144.016 133.082 142.04 132.271 139.936 132.271Z" fill="white"/>
<path d="M147.393 193.16C147.038 193.16 146.678 193.098 146.327 192.968C145.549 192.681 144.931 192.105 144.589 191.348C144.246 190.59 144.218 189.742 144.512 188.959L145.41 186.565C143.736 185.522 142.304 184.188 141.147 182.591L138.823 183.664C137.262 184.386 135.415 183.702 134.708 182.139C134.365 181.382 134.338 180.534 134.632 179.751C134.925 178.97 135.502 178.347 136.258 177.999L138.582 176.925C138.143 174.996 138.081 173.029 138.395 171.068L136.015 170.188C135.238 169.901 134.62 169.325 134.277 168.568C133.934 167.81 133.907 166.962 134.2 166.179C134.805 164.567 136.601 163.738 138.203 164.33L140.59 165.213C141.645 163.522 142.99 162.073 144.595 160.896L143.547 158.581C143.204 157.824 143.177 156.975 143.47 156.192C143.763 155.412 144.341 154.789 145.097 154.441C146.657 153.718 148.504 154.403 149.211 155.965L150.259 158.281C152.189 157.824 154.154 157.744 156.111 158.044L157.012 155.643C157.617 154.031 159.412 153.204 161.014 153.794C161.792 154.082 162.41 154.658 162.752 155.415C163.095 156.173 163.123 157.021 162.829 157.804L161.931 160.197C163.605 161.24 165.037 162.575 166.194 164.172L168.518 163.098C169.273 162.749 170.117 162.715 170.894 163.002C171.672 163.29 172.289 163.865 172.632 164.623C172.975 165.381 173.002 166.229 172.709 167.012C172.416 167.793 171.838 168.415 171.083 168.764L168.759 169.837C169.197 171.766 169.26 173.733 168.946 175.695L171.325 176.574C172.103 176.862 172.721 177.438 173.064 178.195C173.406 178.953 173.434 179.801 173.14 180.584C172.536 182.195 170.741 183.023 169.138 182.432L166.751 181.55C165.696 183.24 164.351 184.69 162.746 185.866L163.794 188.181C164.137 188.939 164.164 189.787 163.87 190.57C163.577 191.351 163 191.973 162.244 192.322C161.488 192.671 160.644 192.705 159.868 192.418C159.091 192.13 158.473 191.555 158.13 190.798L157.082 188.482C155.151 188.939 153.186 189.018 151.23 188.719L150.329 191.12C149.856 192.378 148.658 193.16 147.393 193.16ZM141.445 181.479L141.654 181.783C142.845 183.511 144.365 184.927 146.172 185.994L146.492 186.183L145.333 189.274C145.123 189.833 145.142 190.44 145.387 190.98C145.632 191.52 146.073 191.931 146.629 192.136C147.781 192.563 149.073 191.965 149.509 190.807L150.665 187.724L151.023 187.787C153.094 188.154 155.179 188.07 157.22 187.536L157.576 187.443L158.928 190.43C159.173 190.971 159.613 191.381 160.17 191.587C160.727 191.793 161.334 191.768 161.879 191.517C162.423 191.266 162.839 190.819 163.049 190.257C163.259 189.697 163.241 189.091 162.996 188.551L161.644 185.564L161.946 185.352C163.681 184.143 165.108 182.605 166.189 180.782L166.375 180.468L169.44 181.601C170.592 182.028 171.885 181.43 172.319 180.271C172.529 179.711 172.51 179.105 172.266 178.565C172.021 178.024 171.58 177.613 171.023 177.408L167.951 176.272L168.019 175.903C168.402 173.825 168.336 171.736 167.822 169.696L167.732 169.337L170.718 167.958C171.262 167.707 171.678 167.26 171.888 166.698C172.098 166.138 172.079 165.533 171.835 164.992C171.59 164.451 171.149 164.041 170.593 163.835C170.035 163.628 169.428 163.653 168.883 163.904L165.897 165.284L165.688 164.98C164.497 163.253 162.976 161.836 161.169 160.769L160.848 160.58L162.008 157.489C162.218 156.929 162.2 156.324 161.955 155.783C161.71 155.243 161.269 154.832 160.712 154.626C159.56 154.199 158.268 154.797 157.833 155.957L156.676 159.039L156.319 158.975C154.248 158.608 152.162 158.694 150.122 159.227L149.766 159.32L148.414 156.333C147.908 155.216 146.584 154.727 145.463 155.246C144.918 155.497 144.502 155.945 144.292 156.506C144.082 157.066 144.101 157.672 144.346 158.212L145.698 161.199L145.395 161.41C143.66 162.62 142.233 164.158 141.152 165.981L140.966 166.295L137.902 165.163C136.749 164.736 135.456 165.332 135.022 166.492C134.812 167.052 134.831 167.658 135.076 168.199C135.321 168.739 135.762 169.15 136.318 169.355L139.39 170.491L139.322 170.86C138.938 172.938 139.005 175.026 139.519 177.066L139.609 177.425L136.623 178.803C136.079 179.055 135.663 179.502 135.453 180.064C135.243 180.624 135.262 181.23 135.506 181.77C136.012 182.888 137.337 183.374 138.458 182.857L141.445 181.479ZM153.594 184.731C149.316 184.731 145.235 182.287 143.36 178.145C140.789 172.464 143.323 165.706 149.008 163.08C154.695 160.454 161.412 162.94 163.982 168.62C165.228 171.372 165.326 174.455 164.259 177.302C163.191 180.145 161.088 182.412 158.334 183.683C156.795 184.394 155.181 184.731 153.594 184.731ZM153.749 162.919C152.284 162.919 150.794 163.23 149.373 163.886C144.127 166.309 141.787 172.54 144.157 177.776C146.527 183.012 152.723 185.3 157.968 182.878C160.511 181.704 162.453 179.612 163.438 176.987C164.422 174.365 164.332 171.524 163.184 168.988C161.456 165.17 157.694 162.919 153.749 162.919Z" fill="white"/>
<path d="M114.26 78.883L101.435 75.8076C100.826 75.6614 100.449 75.0445 100.594 74.4299L103.013 64.1365C103.157 63.5214 103.768 63.1412 104.377 63.2874L117.202 66.3628C117.811 66.5086 118.187 67.1255 118.043 67.7406L115.624 78.034C115.479 78.6486 114.869 79.0288 114.26 78.883Z" fill="#29DDFD"/>
<path d="M114.521 79.5788C114.385 79.5788 114.246 79.5629 114.108 79.5297H114.108L101.283 76.4542C100.322 76.2238 99.7258 75.2471 99.9539 74.2762L102.373 63.9823C102.601 63.0123 103.57 62.41 104.529 62.64L117.355 65.7155C118.315 65.9459 118.911 66.923 118.683 67.8935L116.264 78.1869C116.069 79.0178 115.332 79.5788 114.521 79.5788ZM114.411 78.2361C114.669 78.2973 114.923 78.1373 114.983 77.8803L117.403 67.5869C117.463 67.3294 117.305 67.0702 117.05 67.0095L104.225 63.934C103.971 63.8711 103.713 64.0328 103.653 64.2903L101.234 74.5833C101.173 74.8407 101.332 75.0995 101.586 75.1607L114.411 78.2361Z" fill="#233863"/>
<path d="M108.275 73.5174C108.201 73.5174 108.126 73.509 108.052 73.4931C107.78 73.4332 107.548 73.2697 107.398 73.0326L105.786 70.4739C105.591 70.1641 105.681 69.7534 105.988 69.5562C106.293 69.3598 106.701 69.4502 106.896 69.76L108.357 72.079L113.801 68.5343C114.105 68.3348 114.513 68.4235 114.71 68.7328C114.907 69.0412 114.819 69.4525 114.514 69.6514L108.835 73.3495C108.666 73.4603 108.472 73.5174 108.275 73.5174Z" fill="white"/>
<path d="M224.792 79.8522L211.691 81.323C211.069 81.3931 210.509 80.9402 210.44 80.3122L209.283 69.7977C209.214 69.1698 209.662 68.6039 210.284 68.5338L223.385 67.063C224.007 66.993 224.567 67.4459 224.636 68.0739L225.793 78.5884C225.862 79.2168 225.414 79.7827 224.792 79.8522Z" fill="#3AAED5"/>
<path d="M211.562 81.9967C211.158 81.9967 210.768 81.8588 210.447 81.6C210.073 81.2983 209.838 80.8675 209.786 80.3872L208.629 69.8722C208.52 68.8804 209.23 67.9844 210.211 67.8745L223.312 66.4037C224.296 66.2925 225.18 67.0108 225.29 68.0012L226.447 78.5166C226.556 79.5084 225.846 80.4044 224.864 80.5143L211.764 81.9851C211.696 81.9927 211.629 81.9967 211.562 81.9967ZM223.51 67.722C223.492 67.722 223.475 67.7229 223.457 67.7252L210.357 69.196C210.096 69.2252 209.908 69.4627 209.937 69.7255L211.094 80.2405C211.108 80.3677 211.17 80.482 211.269 80.5622C211.368 80.6424 211.493 80.6779 211.618 80.6641L224.719 79.1933C224.979 79.1641 225.167 78.9266 225.138 78.6638L223.982 68.1492C223.955 67.9037 223.749 67.722 223.51 67.722Z" fill="#233863"/>
<path d="M217.013 76.9005C216.784 76.9005 216.563 76.8243 216.379 76.6803L214.008 74.8213C213.721 74.5962 213.67 74.1783 213.892 73.8885C214.114 73.5986 214.528 73.5459 214.815 73.771L216.965 75.4572L220.907 70.2671C221.129 69.9759 221.541 69.9205 221.83 70.1443C222.118 70.3677 222.172 70.7851 221.951 71.0762L217.838 76.491C217.669 76.7139 217.424 76.8566 217.147 76.8925C217.103 76.8974 217.058 76.9005 217.013 76.9005Z" fill="white"/>
<path d="M67.1289 93.09C69.1067 93.09 70.7099 91.4705 70.7099 89.4726C70.7099 87.4748 69.1067 85.8552 67.1289 85.8552C65.1511 85.8552 63.5479 87.4748 63.5479 89.4726C63.5479 91.4705 65.1511 93.09 67.1289 93.09Z" fill="#3AAED5"/>
<path d="M160.969 43.1083C162.947 43.1083 164.55 41.4888 164.55 39.4909C164.55 37.4931 162.947 35.8735 160.969 35.8735C158.991 35.8735 157.388 37.4931 157.388 39.4909C157.388 41.4888 158.991 43.1083 160.969 43.1083Z" fill="#3AAED5"/>
<path d="M90.0303 88.6613C90.0303 89.42 89.4214 90.0355 88.67 90.0355C87.9185 90.0355 87.3096 89.4204 87.3096 88.6613C87.3096 87.9026 87.9185 87.2871 88.67 87.2871C89.4214 87.2871 90.0303 87.9022 90.0303 88.6613Z" fill="#3D85FD"/>
<path d="M246.636 76.6174C246.636 77.376 246.027 77.9916 245.275 77.9916C244.524 77.9916 243.915 77.3765 243.915 76.6174C243.915 75.8587 244.524 75.2432 245.275 75.2432C246.027 75.2432 246.636 75.8582 246.636 76.6174Z" fill="#3D85FD"/>
<path d="M116.007 50.7157C116.759 50.7157 117.368 50.1004 117.368 49.3415C117.368 48.5825 116.759 47.9673 116.007 47.9673C115.256 47.9673 114.647 48.5825 114.647 49.3415C114.647 50.1004 115.256 50.7157 116.007 50.7157Z" fill="#3D85FD"/>
<path d="M71.2256 115.657C71.9769 115.657 72.586 115.041 72.586 114.282C72.586 113.523 71.9769 112.908 71.2256 112.908C70.4743 112.908 69.8652 113.523 69.8652 114.282C69.8652 115.041 70.4743 115.657 71.2256 115.657Z" fill="#29DDFD"/>
<path d="M253.978 127.489C254.729 127.489 255.338 126.874 255.338 126.115C255.338 125.356 254.729 124.741 253.978 124.741C253.226 124.741 252.617 125.356 252.617 126.115C252.617 126.874 253.226 127.489 253.978 127.489Z" fill="#29DDFD"/>
<path d="M276.633 143.178C276.633 144.575 275.512 145.708 274.128 145.708C272.744 145.708 271.623 144.575 271.623 143.178C271.623 141.78 272.744 140.647 274.128 140.647C275.512 140.647 276.633 141.78 276.633 143.178Z" fill="#29DDFD"/>
<path d="M197.36 61.5186C197.36 63.1716 196.034 64.5117 194.398 64.5117C192.761 64.5117 191.435 63.1716 191.435 61.5186C191.435 59.8657 192.761 58.5256 194.398 58.5256C196.034 58.5261 197.36 59.8657 197.36 61.5186Z" fill="#29DDFD"/>
<path d="M122.079 187.68L75.1008 187.779C71.4956 187.787 68.5392 184.814 68.5318 181.172L68.4673 150.27C68.4598 146.629 71.4035 143.642 75.0086 143.635L121.987 143.535C125.592 143.527 128.549 146.501 128.556 150.143L128.621 181.044C128.629 184.686 125.685 187.672 122.079 187.68Z" fill="#3D85FD"/>
<path d="M75.0867 188.443C71.1161 188.444 67.882 185.185 67.8737 181.172L67.8101 150.271C67.8013 146.253 71.0305 142.977 75.0081 142.969L121.987 142.869C121.992 142.869 121.996 142.869 122.001 142.869C125.973 142.869 129.207 146.128 129.215 150.14L129.279 181.041C129.283 182.98 128.535 184.81 127.171 186.192C125.808 187.575 124 188.339 122.081 188.343L75.102 188.442C75.0968 188.443 75.0919 188.443 75.0867 188.443ZM122.001 144.199C121.997 144.199 121.993 144.199 121.989 144.199L75.0103 144.298C71.7587 144.306 69.1187 146.984 69.1257 150.269L69.1893 181.17C69.1963 184.45 71.8408 187.114 75.0862 187.114C75.0906 187.114 75.095 187.114 75.0989 187.114L122.078 187.015C123.645 187.011 125.123 186.386 126.238 185.255C127.353 184.124 127.966 182.629 127.962 181.045L127.898 150.144C127.892 146.863 125.248 144.199 122.001 144.199Z" fill="#233863"/>
<path opacity="0.24" d="M122.079 187.68L75.1008 187.779C71.4956 187.787 68.5392 184.814 68.5318 181.172L68.4673 150.27C68.4598 146.629 71.4035 143.642 75.0086 143.635L121.987 143.535C125.592 143.527 128.549 146.501 128.556 150.143L128.621 181.044C128.629 184.686 125.685 187.672 122.079 187.68Z" fill="#233863"/>
<path d="M119.438 180.785L98.7506 160.751C98.5273 160.535 98.5199 160.176 98.7339 159.951L125.586 131.659C125.8 131.433 126.155 131.426 126.378 131.642L147.065 151.676C147.288 151.892 147.296 152.251 147.082 152.476L120.23 180.768C120.016 180.994 119.661 181.002 119.438 180.785Z" fill="white"/>
<path d="M119.825 181.607C119.509 181.607 119.211 181.486 118.982 181.265C118.982 181.265 118.982 181.265 118.982 181.265L98.2953 161.231C98.0606 161.003 97.9268 160.697 97.9202 160.368C97.9132 160.039 98.0338 159.728 98.2593 159.49L125.111 131.198C125.577 130.708 126.348 130.692 126.834 131.162L147.521 151.196C148.005 151.667 148.022 152.447 147.556 152.937L120.705 181.228C120.48 181.465 120.176 181.601 119.851 181.607C119.842 181.607 119.834 181.607 119.825 181.607ZM119.893 180.304C119.893 180.304 119.893 180.304 119.893 180.304V180.304ZM99.2766 160.339L119.822 180.237L146.539 152.087L125.993 132.189L99.2766 160.339Z" fill="#233863"/>
<path d="M140.957 152.319C140.848 152.319 140.739 152.278 140.654 152.196L132.865 144.653C132.691 144.484 132.685 144.204 132.853 144.027C133.021 143.851 133.298 143.845 133.473 144.014L141.261 151.557C141.436 151.726 141.442 152.007 141.274 152.183C141.188 152.274 141.072 152.319 140.957 152.319Z" fill="#29DDFD"/>
<path d="M137.043 157.512C136.934 157.512 136.825 157.471 136.739 157.389L121.163 142.304C120.988 142.134 120.982 141.854 121.15 141.677C121.318 141.501 121.596 141.495 121.77 141.664L137.347 156.75C137.522 156.919 137.528 157.2 137.36 157.376C137.274 157.466 137.158 157.512 137.043 157.512Z" fill="#233863"/>
<path d="M131.965 162.862C131.856 162.862 131.747 162.821 131.662 162.739L116.085 147.653C115.911 147.484 115.904 147.203 116.072 147.026C116.24 146.85 116.518 146.844 116.693 147.014L132.269 162.099C132.444 162.268 132.45 162.549 132.282 162.726C132.196 162.816 132.081 162.862 131.965 162.862Z" fill="#233863"/>
<path d="M127.187 167.897C127.078 167.897 126.969 167.856 126.883 167.774L111.306 152.689C111.132 152.519 111.126 152.239 111.294 152.062C111.461 151.886 111.739 151.88 111.914 152.049L127.491 167.135C127.666 167.304 127.672 167.585 127.504 167.761C127.417 167.852 127.302 167.897 127.187 167.897Z" fill="#233863"/>
<path d="M122.109 173.247C122 173.247 121.891 173.205 121.806 173.123L106.229 158.038C106.054 157.869 106.048 157.588 106.216 157.411C106.384 157.235 106.661 157.23 106.836 157.398L122.413 172.484C122.588 172.653 122.594 172.934 122.426 173.111C122.34 173.2 122.225 173.247 122.109 173.247Z" fill="#233863"/>
<path d="M107.526 155.244L80.9959 166.192C80.7094 166.31 80.3822 166.172 80.2655 165.882L65.5921 129.599C65.475 129.309 65.6123 128.979 65.8988 128.861L92.4287 117.913C92.7151 117.795 93.0424 117.933 93.1591 118.223L107.832 154.506C107.95 154.796 107.812 155.126 107.526 155.244Z" fill="white"/>
<path d="M80.7841 166.899C80.6244 166.899 80.4643 166.867 80.3125 166.802C80.012 166.675 79.7791 166.437 79.6562 166.133L64.9829 129.85C64.8596 129.546 64.8613 129.211 64.9872 128.907C65.1132 128.604 65.3487 128.369 65.6506 128.244L92.18 117.297C92.8038 117.041 93.5145 117.343 93.7685 117.971L108.442 154.254C108.696 154.882 108.397 155.602 107.775 155.859C107.775 155.859 107.775 155.859 107.775 155.859L81.2447 166.807C81.096 166.869 80.9403 166.899 80.7841 166.899ZM66.238 129.438L80.8376 165.539L107.187 154.666L92.5867 118.565L66.238 129.438Z" fill="#233863"/>
<path d="M88.6704 131.68C88.498 131.68 88.3335 131.577 88.2642 131.405C88.1725 131.178 88.28 130.919 88.5046 130.827L93.0665 128.944C93.2885 128.851 93.5465 128.96 93.6386 129.187C93.7303 129.413 93.6228 129.672 93.3982 129.765L88.8362 131.648C88.7823 131.67 88.7257 131.68 88.6704 131.68Z" fill="#233863"/>
<path d="M76.0308 144.903C75.8579 144.903 75.6938 144.799 75.6245 144.627C75.5328 144.4 75.6403 144.142 75.8649 144.049L95.8408 135.805C96.0632 135.712 96.3211 135.821 96.4128 136.048C96.5045 136.275 96.397 136.533 96.1724 136.626L76.1966 144.87C76.1426 144.892 76.086 144.903 76.0308 144.903Z" fill="#233863"/>
<path d="M89.9541 144.602C89.7813 144.602 89.6172 144.499 89.5479 144.327C89.4562 144.1 89.5637 143.841 89.7883 143.749L97.7286 140.473C97.9523 140.379 98.209 140.489 98.3007 140.715C98.3923 140.942 98.2849 141.201 98.0603 141.293L90.1199 144.57C90.0655 144.592 90.0094 144.602 89.9541 144.602Z" fill="#29DDFD"/>
<path d="M77.9185 149.571C77.7461 149.571 77.582 149.467 77.5122 149.295C77.4205 149.069 77.528 148.81 77.7526 148.717L82.6129 146.711C82.8353 146.618 83.0933 146.727 83.185 146.954C83.2766 147.181 83.1692 147.44 82.9446 147.532L78.0843 149.538C78.0303 149.56 77.9737 149.571 77.9185 149.571Z" fill="#29DDFD"/>
<path d="M79.4863 155.013C79.3135 155.013 79.1494 154.909 79.0801 154.737C78.9884 154.511 79.0959 154.252 79.3205 154.159L91.6245 149.082C91.8469 148.989 92.1049 149.097 92.1966 149.325C92.2882 149.551 92.1808 149.81 91.9562 149.903L79.6522 154.98C79.5982 155.003 79.5416 155.013 79.4863 155.013Z" fill="#233863"/>
<path d="M86.4296 135.042L75.8216 139.685C75.3759 139.88 74.8583 139.673 74.6652 139.224L69.7348 127.728C69.5417 127.278 69.7466 126.755 70.1919 126.56L80.7999 121.917C81.2456 121.722 81.7633 121.929 81.9563 122.379L86.8867 133.874C87.0802 134.325 86.8753 134.847 86.4296 135.042Z" fill="#29DDFD"/>
<path d="M75.4727 140.202C75.3086 140.202 75.1446 140.171 74.9879 140.108C74.6602 139.978 74.4032 139.726 74.2632 139.399L69.3328 127.904C69.1933 127.578 69.1871 127.216 69.3165 126.885C69.4459 126.554 69.6951 126.295 70.0184 126.153L80.6265 121.51C81.2933 121.219 82.0711 121.529 82.3597 122.203L87.2902 133.698C87.4297 134.024 87.4358 134.386 87.3064 134.717C87.177 135.048 86.9278 135.308 86.6045 135.449C86.6045 135.449 86.6045 135.449 86.6045 135.449L75.9965 140.092C75.828 140.165 75.6504 140.202 75.4727 140.202ZM81.1489 122.288C81.0906 122.288 81.0309 122.299 80.9743 122.324L70.3663 126.967C70.2584 127.014 70.1751 127.101 70.1321 127.212C70.0886 127.322 70.0904 127.443 70.1373 127.553L75.0682 139.048C75.1147 139.157 75.2007 139.241 75.3104 139.285C75.4192 139.329 75.5389 139.326 75.6477 139.279L86.2558 134.636C86.3637 134.589 86.4466 134.502 86.49 134.391C86.5334 134.281 86.5317 134.16 86.4848 134.051L81.5543 122.556C81.4819 122.388 81.3196 122.288 81.1489 122.288Z" fill="#233863"/>
<path d="M75.1158 128.953C74.9869 128.953 74.8574 128.928 74.7342 128.879C74.4762 128.776 74.2736 128.578 74.1634 128.321L73.5852 126.973C73.5374 126.86 73.5883 126.73 73.6993 126.681C73.8112 126.633 73.9397 126.684 73.988 126.797L74.5662 128.145C74.6298 128.293 74.7465 128.407 74.8952 128.467C75.0452 128.527 75.2071 128.523 75.3532 128.459L75.451 128.417C75.6848 128.314 75.7927 128.038 75.6914 127.802L74.2279 124.39C74.1235 124.146 73.8414 124.034 73.5993 124.139L73.433 124.213C73.1759 124.325 73.0575 124.627 73.1685 124.887L73.2045 124.97C73.2527 125.083 73.2023 125.213 73.0913 125.262C72.9812 125.311 72.8509 125.26 72.8026 125.148L72.7662 125.063C72.5583 124.579 72.7794 124.015 73.2584 123.805L73.4247 123.732C73.8871 123.531 74.4293 123.745 74.6302 124.213L76.0937 127.626C76.2907 128.086 76.081 128.623 75.6252 128.823L75.5273 128.866C75.3957 128.924 75.2558 128.953 75.1158 128.953Z" fill="#233863"/>
<path d="M81.3386 123.918C81.6992 124.289 81.6935 124.885 81.3264 125.249C80.9592 125.614 80.3691 125.608 80.0085 125.237C79.6479 124.866 79.6536 124.27 80.0208 123.906C80.388 123.541 80.978 123.547 81.3386 123.918Z" fill="white"/>
<path d="M132.6 126.151L106.22 137.464C105.936 137.586 105.607 137.452 105.486 137.164L90.3236 101.086C90.2025 100.798 90.3354 100.466 90.6206 100.344L117 89.0311C117.285 88.9088 117.614 89.043 117.735 89.3311L132.897 125.409C133.018 125.697 132.885 126.029 132.6 126.151Z" fill="white"/>
<path d="M106.002 138.173C105.848 138.173 105.693 138.144 105.546 138.083C105.244 137.96 105.008 137.725 104.88 137.423L89.7179 101.345C89.4556 100.721 89.7447 99.9971 90.3632 99.7317L116.743 88.419C117.042 88.2905 117.374 88.2879 117.676 88.4106C117.978 88.5338 118.214 88.7687 118.341 89.0713L133.503 125.149C133.631 125.451 133.633 125.786 133.512 126.09C133.39 126.396 133.158 126.634 132.858 126.763L106.479 138.075C106.325 138.14 106.164 138.173 106.002 138.173ZM90.9678 100.917L106.054 136.813L132.254 125.577L117.167 89.6811L90.9678 100.917Z" fill="#233863"/>
<path d="M113.422 102.849C113.251 102.849 113.089 102.747 113.018 102.578C112.923 102.353 113.027 102.093 113.25 101.997L117.787 100.052C118.008 99.9571 118.267 100.061 118.362 100.287C118.457 100.512 118.352 100.772 118.13 100.868L113.594 102.813C113.537 102.837 113.479 102.849 113.422 102.849Z" fill="#233863"/>
<path d="M100.962 116.244C100.791 116.244 100.629 116.143 100.558 115.974C100.463 115.749 100.567 115.489 100.791 115.393L120.654 106.875C120.874 106.78 121.134 106.884 121.229 107.11C121.324 107.335 121.22 107.595 120.997 107.691L101.134 116.209C101.078 116.233 101.02 116.244 100.962 116.244Z" fill="#233863"/>
<path d="M114.881 115.754C114.71 115.754 114.548 115.652 114.477 115.483C114.382 115.258 114.486 114.998 114.709 114.902L122.605 111.516C122.826 111.421 123.085 111.526 123.18 111.751C123.274 111.976 123.17 112.237 122.947 112.332L115.052 115.718C114.997 115.742 114.938 115.754 114.881 115.754Z" fill="#29DDFD"/>
<path d="M102.913 120.885C102.742 120.885 102.58 120.784 102.509 120.615C102.414 120.39 102.518 120.13 102.741 120.034L107.574 117.961C107.795 117.867 108.055 117.971 108.15 118.196C108.245 118.421 108.141 118.682 107.917 118.778L103.084 120.85C103.028 120.874 102.97 120.885 102.913 120.885Z" fill="#29DDFD"/>
<path d="M104.554 126.307C104.383 126.307 104.221 126.206 104.15 126.038C104.055 125.812 104.159 125.552 104.382 125.456L116.617 120.209C116.839 120.114 117.097 120.219 117.192 120.444C117.287 120.669 117.183 120.93 116.96 121.026L104.725 126.272C104.669 126.296 104.611 126.307 104.554 126.307Z" fill="#233863"/>
<path d="M119.115 164.628L90.7814 160.285C90.4757 160.238 90.2651 159.95 90.3116 159.641L96.1317 120.89C96.1782 120.581 96.4638 120.368 96.7696 120.415L125.103 124.758C125.41 124.805 125.62 125.093 125.573 125.402L119.753 164.153C119.707 164.462 119.421 164.675 119.115 164.628Z" fill="#3AAED5"/>
<path d="M119.202 165.298C119.14 165.298 119.079 165.294 119.017 165.285L90.6829 160.942C90.3613 160.893 90.077 160.72 89.8845 160.454C89.6914 160.189 89.612 159.865 89.6612 159.539L95.4809 120.789C95.5296 120.464 95.7006 120.178 95.963 119.983C96.2249 119.789 96.5469 119.708 96.868 119.757L125.202 124.1C125.524 124.149 125.808 124.322 126 124.587C126.193 124.852 126.273 125.176 126.224 125.501L120.404 164.252C120.355 164.577 120.184 164.864 119.922 165.058C119.711 165.216 119.46 165.298 119.202 165.298ZM90.9768 159.642L119.118 163.955L124.908 125.399L96.7671 121.086L90.9768 159.642Z" fill="#233863"/>
<path d="M105.866 127.323C105.844 127.323 105.822 127.321 105.8 127.318L100.361 126.484C100.121 126.448 99.9569 126.222 99.9933 125.98C100.03 125.738 100.254 125.57 100.493 125.608L105.932 126.442C106.171 126.478 106.336 126.704 106.3 126.947C106.266 127.166 106.079 127.323 105.866 127.323Z" fill="white"/>
<path d="M119.986 135.44C119.964 135.44 119.942 135.439 119.92 135.435L113.674 134.478C113.435 134.441 113.27 134.216 113.307 133.973C113.343 133.731 113.566 133.564 113.806 133.602L120.052 134.559C120.292 134.595 120.456 134.821 120.42 135.064C120.386 135.283 120.2 135.44 119.986 135.44Z" fill="#233863"/>
<path d="M109.319 133.805C109.297 133.805 109.274 133.803 109.252 133.8L98.5851 132.165C98.3456 132.129 98.181 131.903 98.2174 131.66C98.2539 131.418 98.4758 131.251 98.7171 131.289L109.384 132.924C109.624 132.96 109.788 133.186 109.752 133.429C109.719 133.648 109.532 133.805 109.319 133.805Z" fill="white"/>
<path d="M109.705 141.362C109.683 141.362 109.66 141.36 109.638 141.356L97.4845 139.494C97.245 139.457 97.0805 139.231 97.1169 138.989C97.1533 138.747 97.3761 138.58 97.6165 138.618L109.77 140.48C110.01 140.516 110.175 140.742 110.138 140.985C110.105 141.204 109.918 141.362 109.705 141.362Z" fill="#233863"/>
<path d="M117.85 149.664C117.828 149.664 117.806 149.662 117.784 149.659L96.4488 146.389C96.2093 146.353 96.0448 146.127 96.0812 145.884C96.1176 145.642 96.3405 145.476 96.5809 145.513L117.916 148.783C118.155 148.819 118.32 149.045 118.283 149.287C118.25 149.507 118.064 149.664 117.85 149.664Z" fill="white"/>
<path d="M107.412 155.561C107.39 155.561 107.368 155.559 107.346 155.555L95.3483 153.717C95.1087 153.681 94.9442 153.455 94.9806 153.212C95.0166 152.97 95.236 152.804 95.4803 152.841L107.478 154.679C107.717 154.716 107.882 154.942 107.845 155.184C107.813 155.403 107.625 155.561 107.412 155.561Z" fill="white"/>
<path d="M123.815 193.194L73.3654 193.301C70.7144 193.307 68.5411 191.12 68.5354 188.443L68.4639 154.035C68.4582 151.357 70.6227 149.162 73.2737 149.156L123.723 149.049C126.374 149.043 128.547 151.23 128.553 153.908L128.624 188.315C128.63 190.993 126.466 193.189 123.815 193.194Z" fill="white"/>
<path d="M73.3551 193.744C71.96 193.744 70.6444 193.193 69.649 192.192C68.651 191.187 68.1 189.856 68.0969 188.443L68.0254 154.035C68.0223 152.622 68.5681 151.288 69.5621 150.28C70.5558 149.272 71.8741 148.715 73.273 148.712L123.722 148.605C123.726 148.605 123.73 148.605 123.733 148.605C126.628 148.605 128.986 150.981 128.992 153.906L129.063 188.314C129.069 191.242 126.715 193.63 123.815 193.637L73.366 193.744C73.3625 193.744 73.3581 193.744 73.3551 193.744ZM123.733 149.492C123.729 149.492 123.727 149.492 123.724 149.492L73.2744 149.599C72.1096 149.601 71.0116 150.065 70.1833 150.905C69.3546 151.746 68.8997 152.857 68.9024 154.034L68.9739 188.441C68.9765 189.617 69.4358 190.726 70.2676 191.564C71.0976 192.398 72.1934 192.858 73.3546 192.858C73.3577 192.858 73.3612 192.858 73.3639 192.858L123.813 192.75C126.229 192.745 128.19 190.756 128.185 188.315L128.114 153.908C128.109 151.471 126.145 149.492 123.733 149.492Z" fill="#233863"/>
<path d="M124.227 140.771L111.502 140.798C109.143 140.803 107.216 142.757 107.221 145.14L107.234 151.292L75.0042 151.36C71.3991 151.368 68.455 154.353 68.4629 157.996L68.527 188.897C68.5344 192.539 71.4908 195.512 75.0959 195.505L122.075 195.405C125.68 195.398 128.623 192.411 128.616 188.769L128.553 158.501L128.552 157.868L128.526 145.096C128.521 142.712 126.586 140.766 124.227 140.771Z" fill="#3D85FD"/>
<path d="M75.0827 196.17C71.1121 196.17 67.8776 192.911 67.8692 188.899L67.8052 157.997C67.7964 153.98 71.0256 150.705 75.0033 150.696L106.575 150.629L106.564 145.142C106.561 143.812 107.074 142.557 108.009 141.609C108.944 140.66 110.184 140.137 111.501 140.134L124.226 140.107C124.229 140.107 124.233 140.107 124.236 140.107C126.96 140.107 129.178 142.341 129.184 145.094L129.275 188.769C129.283 192.786 126.053 196.062 122.077 196.07L75.0976 196.17C75.0923 196.17 75.0875 196.17 75.0827 196.17ZM124.228 141.437L111.503 141.464C110.538 141.466 109.628 141.85 108.941 142.547C108.254 143.244 107.877 144.165 107.879 145.14L107.892 151.291C107.892 151.467 107.823 151.636 107.699 151.762C107.577 151.886 107.409 151.957 107.235 151.957L75.005 152.026C71.7534 152.033 69.1134 154.711 69.1204 157.995L69.1844 188.897C69.1915 192.177 71.8359 194.841 75.0818 194.841C75.0857 194.841 75.0897 194.841 75.0936 194.841L122.073 194.741C125.324 194.734 127.964 192.056 127.957 188.771L127.867 145.097C127.862 143.077 126.234 141.436 124.235 141.436C124.233 141.437 124.231 141.437 124.228 141.437Z" fill="#233863"/>
<path opacity="0.12" d="M123.784 145.699L112.399 145.724C110.288 145.728 108.564 147.477 108.569 149.61L108.58 155.115L79.7427 155.176C76.517 155.183 73.8831 157.855 73.8897 161.115L73.9471 188.769C73.9537 192.028 76.5986 194.689 79.8247 194.682L121.859 194.593C125.085 194.587 127.719 191.914 127.712 188.655L127.656 161.567L127.654 161L127.631 149.569C127.626 147.436 125.895 145.695 123.784 145.699Z" fill="white"/>
<path d="M124.446 189.033C124.446 190.228 123.487 191.197 122.304 191.197C121.121 191.197 120.162 190.228 120.162 189.033C120.162 187.838 121.121 186.869 122.304 186.869C123.487 186.869 124.446 187.838 124.446 189.033Z" fill="white"/>
<path d="M125.944 152.455C125.701 152.455 125.505 152.257 125.505 152.011V146.121C125.505 145.133 124.637 144.329 123.57 144.329H119.321C119.078 144.329 118.882 144.131 118.882 143.886C118.882 143.64 119.078 143.442 119.321 143.442H123.57C125.121 143.442 126.382 144.644 126.382 146.121V152.011C126.382 152.257 126.186 152.455 125.944 152.455Z" fill="white"/>
<path d="M94.5641 169.929C94.2807 169.929 93.9968 169.819 93.7819 169.598C93.3572 169.162 93.3634 168.461 93.795 168.031L98.9497 162.913L104.024 168.038C104.452 168.471 104.452 169.172 104.024 169.605C103.595 170.038 102.901 170.038 102.473 169.605L98.9365 166.032L95.3326 169.611C95.1194 169.824 94.8418 169.929 94.5641 169.929Z" fill="white"/>
<path d="M98.9068 176.794C98.301 176.794 97.8101 176.298 97.8101 175.686V164.474C97.8101 163.862 98.301 163.366 98.9068 163.366C99.5126 163.366 100.004 163.862 100.004 164.474V175.686C100.004 176.298 99.5126 176.794 98.9068 176.794Z" fill="white"/>
<path d="M106.981 182.117H90.7041C89.4038 182.117 88.3457 181.048 88.3457 179.734V173.761C88.3457 173.149 88.8366 172.653 89.4424 172.653C90.0483 172.653 90.5392 173.149 90.5392 173.761V179.734C90.5392 179.826 90.6133 179.901 90.7041 179.901H106.981C107.142 179.901 107.274 179.768 107.274 179.605V173.761C107.274 173.149 107.764 172.653 108.37 172.653C108.976 172.653 109.467 173.149 109.467 173.761V179.605C109.467 180.99 108.352 182.117 106.981 182.117Z" fill="white"/>
<path d="M243.583 187.68L196.604 187.779C192.999 187.787 190.043 184.814 190.035 181.172L189.971 150.27C189.964 146.629 192.907 143.642 196.513 143.635L243.491 143.535C247.096 143.527 250.053 146.501 250.06 150.143L250.124 181.044C250.132 184.686 247.188 187.672 243.583 187.68Z" fill="#3D85FD"/>
<path d="M196.59 188.444C194.676 188.444 192.871 187.688 191.506 186.315C190.137 184.938 189.381 183.111 189.377 181.173L189.313 150.271C189.304 146.254 192.533 142.978 196.511 142.969L243.49 142.869C243.495 142.869 243.499 142.869 243.504 142.869C247.475 142.869 250.709 146.128 250.718 150.141L250.782 181.042C250.79 185.059 247.561 188.335 243.584 188.343L196.604 188.443C196.6 188.444 196.594 188.444 196.59 188.444ZM243.504 144.199C243.5 144.199 243.496 144.199 243.492 144.199L196.513 144.299C193.262 144.306 190.622 146.984 190.629 150.269L190.693 181.17C190.697 182.754 191.315 184.247 192.435 185.373C193.552 186.497 195.026 187.115 196.59 187.115C196.594 187.115 196.599 187.115 196.603 187.115L243.582 187.015C245.149 187.012 246.627 186.387 247.742 185.256C248.858 184.124 249.47 182.629 249.466 181.046L249.402 150.144C249.395 146.863 246.75 144.199 243.504 144.199Z" fill="#233863"/>
<path d="M243.583 187.68L196.604 187.779C192.999 187.787 190.043 184.814 190.035 181.172L189.971 150.27C189.964 146.629 192.907 143.642 196.513 143.635L243.491 143.535C247.096 143.527 250.053 146.501 250.06 150.143L250.124 181.044C250.132 184.686 247.188 187.672 243.583 187.68Z" fill="#29DDFD"/>
<path d="M196.59 188.444C194.676 188.444 192.871 187.688 191.506 186.315C190.137 184.938 189.381 183.111 189.377 181.173L189.313 150.271C189.304 146.254 192.533 142.978 196.511 142.969L243.49 142.869C243.495 142.869 243.499 142.869 243.504 142.869C247.475 142.869 250.709 146.128 250.718 150.141L250.782 181.042C250.79 185.059 247.561 188.335 243.584 188.343L196.604 188.443C196.6 188.444 196.594 188.444 196.59 188.444ZM243.504 144.199C243.5 144.199 243.496 144.199 243.492 144.199L196.513 144.299C193.262 144.306 190.622 146.984 190.629 150.269L190.693 181.17C190.697 182.754 191.315 184.247 192.435 185.373C193.552 186.497 195.026 187.115 196.59 187.115C196.594 187.115 196.599 187.115 196.603 187.115L243.582 187.015C245.149 187.012 246.627 186.387 247.742 185.256C248.858 184.124 249.47 182.629 249.466 181.046L249.402 150.144C249.395 146.863 246.75 144.199 243.504 144.199Z" fill="#233863"/>
<path opacity="0.24" d="M243.583 187.68L196.604 187.779C192.999 187.787 190.043 184.814 190.035 181.172L189.971 150.27C189.964 146.629 192.907 143.642 196.513 143.635L243.491 143.535C247.096 143.527 250.053 146.501 250.06 150.143L250.124 181.044C250.132 184.686 247.188 187.672 243.583 187.68Z" fill="#233863"/>
<path d="M245.317 190.436L194.868 190.543C192.217 190.548 190.044 188.362 190.038 185.684L189.967 151.277C189.961 148.599 192.126 146.404 194.777 146.398L245.226 146.291C247.877 146.285 250.05 148.471 250.056 151.149L250.127 185.556C250.133 188.235 247.968 190.43 245.317 190.436Z" fill="white"/>
<path d="M194.858 190.985C191.964 190.985 189.606 188.61 189.6 185.684L189.528 151.277C189.522 148.348 191.876 145.96 194.776 145.954L245.225 145.847C245.229 145.847 245.233 145.847 245.236 145.847C248.131 145.847 250.489 148.222 250.494 151.148L250.566 185.555C250.572 188.484 248.217 190.872 245.318 190.879L194.869 190.985C194.865 190.985 194.862 190.985 194.858 190.985ZM245.317 189.992C247.733 189.987 249.694 187.998 249.689 185.557L249.617 151.15C249.612 148.713 247.648 146.734 245.237 146.734C245.233 146.734 245.23 146.734 245.227 146.734L194.778 146.84C192.362 146.846 190.401 148.835 190.406 151.276L190.478 185.683C190.483 188.12 192.447 190.099 194.858 190.099C194.862 190.099 194.865 190.099 194.868 190.099L245.317 189.992Z" fill="#233863"/>
<path d="M245.317 193.194L194.868 193.301C192.217 193.307 190.044 191.12 190.038 188.443L189.967 154.035C189.961 151.357 192.126 149.162 194.777 149.156L245.226 149.049C247.877 149.043 250.05 151.23 250.056 153.908L250.127 188.315C250.133 190.993 247.968 193.189 245.317 193.194Z" fill="white"/>
<path d="M194.858 193.744C191.964 193.744 189.606 191.368 189.6 188.443L189.528 154.035C189.525 152.622 190.071 151.288 191.065 150.28C192.059 149.272 193.377 148.715 194.776 148.712L245.225 148.605C245.229 148.605 245.233 148.605 245.236 148.605C248.131 148.605 250.489 150.981 250.494 153.906L250.566 188.314C250.572 191.242 248.217 193.63 245.318 193.637L194.869 193.744C194.865 193.744 194.862 193.744 194.858 193.744ZM245.236 149.492C245.233 149.492 245.23 149.492 245.227 149.492L194.778 149.599C193.613 149.601 192.515 150.065 191.687 150.905C190.858 151.746 190.403 152.857 190.406 154.034L190.477 188.441C190.482 190.878 192.447 192.858 194.858 192.858C194.862 192.858 194.864 192.858 194.868 192.858L245.317 192.75C247.733 192.745 249.694 190.756 249.689 188.315L249.617 153.908C249.612 151.471 247.647 149.492 245.236 149.492Z" fill="#233863"/>
<path d="M245.729 140.771L233.005 140.798C230.645 140.803 228.719 142.757 228.724 145.14L228.737 151.292L196.507 151.36C192.902 151.368 189.958 154.353 189.966 157.996L190.03 188.897C190.037 192.539 192.994 195.512 196.599 195.505L243.578 195.405C247.183 195.398 250.126 192.411 250.119 188.769L250.056 158.501L250.055 157.868L250.028 145.096C250.023 142.712 248.089 140.766 245.729 140.771Z" fill="#29DDFD"/>
<path d="M196.586 196.17C192.615 196.17 189.381 192.911 189.373 188.899L189.309 157.997C189.3 153.98 192.529 150.705 196.507 150.696L228.078 150.629L228.067 145.142C228.064 143.812 228.577 142.557 229.513 141.609C230.447 140.66 231.688 140.137 233.005 140.134L245.729 140.107C245.733 140.107 245.737 140.107 245.74 140.107C247.053 140.107 248.291 140.625 249.227 141.567C250.166 142.511 250.684 143.764 250.687 145.094L250.778 188.769C250.782 190.707 250.034 192.537 248.67 193.92C247.307 195.302 245.499 196.066 243.58 196.07L196.601 196.17C196.596 196.17 196.591 196.17 196.586 196.17ZM245.731 141.437L233.006 141.464C232.041 141.466 231.131 141.85 230.444 142.547C229.757 143.244 229.38 144.165 229.382 145.14L229.395 151.291C229.395 151.658 229.101 151.956 228.738 151.957L196.508 152.026C193.257 152.033 190.617 154.711 190.624 157.995L190.688 188.897C190.694 192.177 193.339 194.841 196.585 194.841C196.589 194.841 196.593 194.841 196.597 194.841L243.576 194.741C245.144 194.738 246.621 194.113 247.736 192.982C248.851 191.851 249.464 190.355 249.46 188.771L249.37 145.097C249.368 144.122 248.987 143.203 248.297 142.509C247.609 141.817 246.701 141.436 245.738 141.436C245.737 141.437 245.734 141.437 245.731 141.437Z" fill="#233863"/>
<path opacity="0.12" d="M245.164 145.699L233.779 145.724C231.668 145.728 229.944 147.477 229.949 149.61L229.96 155.115L201.123 155.176C197.897 155.183 195.263 157.855 195.27 161.115L195.327 188.769C195.334 192.028 197.979 194.689 201.205 194.682L243.239 194.593C246.464 194.587 249.098 191.914 249.092 188.655L249.036 161.567L249.034 161L249.011 149.569C249.006 147.436 247.275 145.695 245.164 145.699Z" fill="white"/>
<path d="M245.826 189.033C245.826 190.228 244.867 191.197 243.684 191.197C242.501 191.197 241.542 190.228 241.542 189.033C241.542 187.838 242.501 186.869 243.684 186.869C244.867 186.869 245.826 187.838 245.826 189.033Z" fill="white"/>
<path d="M247.323 152.455C247.08 152.455 246.884 152.257 246.884 152.011V146.121C246.884 145.133 246.016 144.329 244.95 144.329H240.7C240.458 144.329 240.262 144.131 240.262 143.886C240.262 143.64 240.458 143.442 240.7 143.442H244.95C246.5 143.442 247.762 144.644 247.762 146.121V152.011C247.762 152.257 247.566 152.455 247.323 152.455Z" fill="white"/>
<path d="M221.734 177.245L216.66 172.12C216.231 171.687 216.231 170.986 216.66 170.553C217.088 170.121 217.782 170.121 218.211 170.553L221.747 174.126L225.351 170.547C225.783 170.118 226.476 170.125 226.902 170.56C227.327 170.997 227.32 171.698 226.889 172.127L221.734 177.245Z" fill="white"/>
<path d="M221.777 176.794C221.172 176.794 220.681 176.298 220.681 175.686V164.474C220.681 163.862 221.172 163.366 221.777 163.366C222.383 163.366 222.874 163.862 222.874 164.474V175.686C222.874 176.298 222.383 176.794 221.777 176.794Z" fill="white"/>
<path d="M229.852 182.117H213.575C212.275 182.117 211.217 181.048 211.217 179.734V173.761C211.217 173.149 211.708 172.653 212.314 172.653C212.919 172.653 213.41 173.149 213.41 173.761V179.734C213.41 179.826 213.484 179.901 213.575 179.901H229.852C230.013 179.901 230.145 179.768 230.145 179.605V173.761C230.145 173.149 230.636 172.653 231.241 172.653C231.847 172.653 232.338 173.149 232.338 173.761V179.605C232.338 180.99 231.223 182.117 229.852 182.117Z" fill="white"/>
<path d="M216.462 136.535L194.788 120.756C194.537 120.573 194.48 120.219 194.662 119.966L215.826 90.3037C216.007 90.0502 216.357 89.9926 216.608 90.1756L238.281 105.955C238.532 106.138 238.589 106.492 238.408 106.745L217.244 136.407C217.063 136.661 216.712 136.718 216.462 136.535Z" fill="white"/>
<path d="M216.787 137.306C216.533 137.306 216.286 137.226 216.077 137.074L194.404 121.295C193.86 120.897 193.736 120.127 194.128 119.577L215.292 89.9146C215.483 89.6479 215.764 89.4719 216.085 89.4192C216.405 89.3674 216.728 89.4431 216.993 89.6355L238.665 105.415C239.21 105.812 239.334 106.582 238.942 107.133L217.778 136.795C217.587 137.062 217.305 137.238 216.984 137.29C216.918 137.301 216.852 137.306 216.787 137.306ZM216.846 135.995L216.845 135.995L216.846 135.995ZM195.252 120.274L216.767 135.938L237.817 106.436L216.303 90.7721L195.252 120.274Z" fill="#233863"/>
<path d="M216.462 136.535L194.788 120.756C194.537 120.573 194.48 120.219 194.662 119.966L215.826 90.3037C216.007 90.0502 216.357 89.9926 216.608 90.1756L238.281 105.955C238.532 106.138 238.589 106.492 238.408 106.745L217.244 136.407C217.063 136.661 216.712 136.718 216.462 136.535Z" fill="#3AAED5"/>
<path d="M216.787 137.306C216.533 137.306 216.286 137.226 216.077 137.074L194.404 121.295C193.86 120.897 193.736 120.127 194.128 119.577L215.292 89.9146C215.483 89.6479 215.764 89.4719 216.085 89.4192C216.405 89.3674 216.728 89.4431 216.993 89.6355L238.665 105.415C239.21 105.812 239.334 106.582 238.942 107.133L217.778 136.795C217.587 137.062 217.305 137.238 216.984 137.29C216.918 137.301 216.852 137.306 216.787 137.306ZM216.846 135.995L216.845 135.995L216.846 135.995ZM195.252 120.274L216.767 135.938L237.817 106.436L216.303 90.7721L195.252 120.274Z" fill="#233863"/>
<path d="M229.729 112.731C229.64 112.731 229.55 112.704 229.473 112.647L225.735 109.926C225.539 109.783 225.495 109.506 225.636 109.308C225.777 109.109 226.051 109.063 226.249 109.207L229.985 111.928C230.182 112.071 230.226 112.348 230.085 112.547C229.999 112.667 229.865 112.731 229.729 112.731Z" fill="#233863"/>
<path d="M225.719 118.352C225.63 118.352 225.54 118.325 225.463 118.268L209.099 106.354C208.902 106.211 208.858 105.934 208.999 105.736C209.14 105.537 209.415 105.491 209.612 105.635L225.976 117.549C226.172 117.692 226.216 117.969 226.075 118.168C225.99 118.287 225.855 118.352 225.719 118.352Z" fill="#233863"/>
<path d="M222.99 122.174C222.902 122.174 222.812 122.147 222.734 122.091L216.23 117.355C216.033 117.212 215.989 116.935 216.13 116.737C216.272 116.539 216.546 116.493 216.743 116.636L223.247 121.372C223.443 121.515 223.488 121.792 223.346 121.991C223.261 122.11 223.127 122.174 222.99 122.174Z" fill="#29DDFD"/>
<path d="M210.608 113.158C210.519 113.158 210.429 113.131 210.352 113.075L206.371 110.176C206.174 110.033 206.13 109.756 206.271 109.558C206.412 109.359 206.687 109.314 206.884 109.457L210.865 112.356C211.062 112.499 211.106 112.776 210.965 112.974C210.879 113.095 210.744 113.158 210.608 113.158Z" fill="#29DDFD"/>
<path d="M213.21 121.551C213.122 121.551 213.032 121.524 212.954 121.467L202.875 114.129C202.678 113.985 202.634 113.709 202.775 113.51C202.916 113.311 203.19 113.266 203.388 113.409L213.467 120.747C213.664 120.891 213.708 121.168 213.567 121.366C213.481 121.487 213.347 121.551 213.21 121.551Z" fill="#233863"/>
<path d="M218.604 132.963L191.856 122.57C191.568 122.457 191.423 122.13 191.534 121.838L205.465 85.2567C205.576 84.9651 205.9 84.8193 206.189 84.9318L232.937 95.3254C233.225 95.4375 233.37 95.765 233.258 96.057L219.328 132.638C219.217 132.93 218.893 133.075 218.604 132.963Z" fill="white"/>
<path d="M218.803 133.665C218.658 133.665 218.511 133.638 218.367 133.583L191.62 123.189C190.992 122.945 190.679 122.231 190.92 121.598L204.85 85.0177C205.092 84.3845 205.798 84.0676 206.425 84.3105L233.172 94.7045C233.799 94.9482 234.113 95.6616 233.873 96.2945L219.942 132.876C219.756 133.365 219.293 133.665 218.803 133.665ZM192.184 121.984L218.749 132.307L232.61 95.9098L206.044 85.5872L192.184 121.984Z" fill="#233863"/>
<path d="M218.604 132.963L191.856 122.57C191.568 122.457 191.423 122.13 191.534 121.838L205.465 85.2567C205.576 84.9651 205.9 84.8193 206.189 84.9318L232.937 95.3254C233.225 95.4375 233.37 95.765 233.258 96.057L219.328 132.638C219.217 132.93 218.893 133.075 218.604 132.963Z" fill="white"/>
<path d="M218.803 133.665C218.658 133.665 218.511 133.638 218.367 133.583L191.62 123.189C190.992 122.945 190.679 122.231 190.92 121.598L204.85 85.0177C205.092 84.3845 205.798 84.0676 206.425 84.3105L233.172 94.7045C233.799 94.9482 234.113 95.6616 233.873 96.2945L219.942 132.876C219.756 133.365 219.293 133.665 218.803 133.665ZM192.184 121.984L218.749 132.307L232.61 95.9098L206.044 85.5872L192.184 121.984Z" fill="#233863"/>
<path d="M210.918 98.501C210.865 98.501 210.812 98.4913 210.76 98.4713L206.161 96.6841C205.935 96.5964 205.822 96.3398 205.909 96.1116C205.996 95.8829 206.25 95.769 206.476 95.8572L211.076 97.6444C211.302 97.7322 211.414 97.9888 211.327 98.217C211.26 98.3929 211.094 98.501 210.918 98.501Z" fill="#233863"/>
<path d="M223.125 111.574C223.073 111.574 223.02 111.565 222.968 111.545L202.828 103.719C202.602 103.631 202.489 103.374 202.576 103.146C202.663 102.918 202.916 102.803 203.143 102.892L223.283 110.718C223.509 110.806 223.622 111.062 223.535 111.29C223.468 111.466 223.301 111.574 223.125 111.574Z" fill="#233863"/>
<path d="M221.333 116.281C221.28 116.281 221.227 116.271 221.175 116.251L213.17 113.14C212.944 113.053 212.831 112.796 212.918 112.568C213.005 112.339 213.258 112.225 213.485 112.314L221.49 115.424C221.716 115.512 221.829 115.769 221.742 115.997C221.675 116.173 221.508 116.281 221.333 116.281Z" fill="#29DDFD"/>
<path d="M206.093 110.36C206.041 110.36 205.987 110.35 205.935 110.33L201.035 108.426C200.809 108.338 200.696 108.082 200.783 107.853C200.87 107.625 201.123 107.511 201.351 107.599L206.251 109.503C206.477 109.591 206.589 109.847 206.503 110.076C206.435 110.252 206.269 110.36 206.093 110.36Z" fill="#29DDFD"/>
<path d="M211.047 118.324C210.995 118.324 210.941 118.315 210.89 118.295L198.484 113.474C198.258 113.387 198.146 113.13 198.232 112.902C198.32 112.674 198.573 112.559 198.8 112.647L211.205 117.468C211.431 117.555 211.544 117.812 211.457 118.041C211.389 118.216 211.223 118.324 211.047 118.324Z" fill="#233863"/>
<path d="M169.197 116.924L137.519 105.998C137.156 105.873 136.963 105.475 137.087 105.109L151.861 61.401C151.984 61.035 152.378 60.8395 152.741 60.9645L184.419 71.8903C184.781 72.0152 184.974 72.4132 184.851 72.7792L170.077 116.488C169.953 116.854 169.559 117.049 169.197 116.924Z" fill="#29DDFD"/>
<path d="M169.42 117.626C169.275 117.626 169.128 117.602 168.985 117.552L137.307 106.627C136.965 106.509 136.689 106.264 136.53 105.937C136.371 105.609 136.348 105.239 136.464 104.894L151.238 61.1852C151.355 60.8399 151.597 60.5617 151.922 60.4008C152.246 60.2404 152.612 60.216 152.954 60.3343L184.631 71.2601C184.973 71.378 185.249 71.623 185.408 71.9505C185.567 72.278 185.591 72.6485 185.474 72.9937L170.7 116.702C170.508 117.268 169.982 117.626 169.42 117.626ZM152.52 61.5915C152.505 61.5915 152.488 61.6017 152.484 61.615L137.71 105.323C137.704 105.339 137.716 105.363 137.732 105.369L169.41 116.294H169.41C169.425 116.299 169.449 116.288 169.454 116.272L184.228 72.5638C184.234 72.5479 184.222 72.5239 184.206 72.5186L152.529 61.5929C152.525 61.592 152.523 61.5915 152.52 61.5915Z" fill="#233863"/>
<path d="M175.772 114.01L142.405 111.31C142.023 111.279 141.739 110.942 141.769 110.556L145.42 64.5177C145.45 64.1322 145.785 63.8446 146.166 63.8756L179.533 66.5752C179.915 66.6063 180.199 66.9439 180.169 67.3295L176.518 113.368C176.487 113.753 176.153 114.041 175.772 114.01Z" fill="white"/>
<path d="M175.829 114.678C175.792 114.678 175.755 114.677 175.719 114.674L142.352 111.974C141.992 111.945 141.666 111.776 141.431 111.499C141.197 111.221 141.084 110.868 141.113 110.504L144.763 64.4662C144.823 63.7155 145.476 63.1545 146.218 63.2143L179.584 65.914C180.327 65.9742 180.882 66.6332 180.823 67.3835L177.173 113.422C177.144 113.786 176.977 114.116 176.702 114.353C176.457 114.564 176.15 114.678 175.829 114.678ZM146.111 64.5393C146.092 64.5393 146.077 64.5535 146.075 64.5726L142.425 110.611C142.424 110.628 142.441 110.648 142.458 110.649L175.824 113.349C175.845 113.345 175.861 113.333 175.863 113.316L179.513 67.2775C179.514 67.258 179.5 67.2408 179.48 67.239L146.113 64.5393C146.113 64.5393 146.112 64.5393 146.111 64.5393Z" fill="#233863"/>
<path d="M174.645 74.3334C174.634 74.3334 174.622 74.3329 174.61 74.332L166.158 73.6478C165.916 73.6283 165.736 73.4147 165.755 73.1706C165.775 72.9268 165.979 72.7442 166.228 72.7642L174.68 73.4484C174.921 73.4679 175.102 73.6815 175.082 73.9257C175.064 74.1574 174.872 74.3334 174.645 74.3334Z" fill="#29DDFD"/>
<path d="M174.43 77.0613C174.418 77.0613 174.406 77.0608 174.394 77.0599L165.941 76.3761C165.7 76.3566 165.52 76.1431 165.539 75.8989C165.558 75.6551 165.768 75.4721 166.011 75.4925L174.464 76.1767C174.705 76.1962 174.886 76.4098 174.866 76.654C174.848 76.8853 174.656 77.0613 174.43 77.0613Z" fill="#29DDFD"/>
<path d="M154.64 106.389C154.629 106.389 154.616 106.389 154.604 106.388L146.152 105.704C145.91 105.684 145.73 105.471 145.749 105.227C145.769 104.983 145.98 104.8 146.222 104.82L154.675 105.504C154.916 105.523 155.096 105.737 155.077 105.981C155.059 106.213 154.866 106.389 154.64 106.389Z" fill="#29DDFD"/>
<path d="M155.01 91.5522C154.999 91.5522 154.986 91.5518 154.975 91.5509L147.459 90.9429C147.218 90.9234 147.038 90.7098 147.057 90.4657C147.076 90.2224 147.284 90.0371 147.53 90.0597L155.045 90.6677C155.286 90.6872 155.466 90.9008 155.447 91.145C155.429 91.3763 155.237 91.5522 155.01 91.5522Z" fill="#233863"/>
<path d="M159.617 102.11C159.606 102.11 159.593 102.109 159.581 102.108L146.657 101.063C146.416 101.043 146.236 100.83 146.255 100.586C146.275 100.342 146.482 100.157 146.727 100.18L159.652 101.225C159.893 101.244 160.073 101.458 160.054 101.702C160.035 101.934 159.844 102.11 159.617 102.11Z" fill="#233863"/>
<path d="M156.878 96.7963C156.867 96.7963 156.854 96.7958 156.843 96.7949L147.058 96.003C146.817 95.9835 146.636 95.77 146.656 95.5258C146.675 95.282 146.879 95.0995 147.128 95.1194L156.913 95.9113C157.154 95.9308 157.334 96.1444 157.315 96.3886C157.297 96.6203 157.105 96.7963 156.878 96.7963Z" fill="#233863"/>
<path d="M173.129 88.3376C173.118 88.3376 173.105 88.3372 173.094 88.3363L147.789 86.289C147.548 86.2695 147.368 86.0559 147.387 85.8117C147.406 85.568 147.611 85.3818 147.86 85.4053L173.164 87.4527C173.405 87.4722 173.585 87.6858 173.566 87.9299C173.548 88.1617 173.356 88.3376 173.129 88.3376Z" fill="#233863"/>
<path d="M172.09 97.9868C172.079 97.9868 172.066 97.9863 172.055 97.9855L159.964 97.0074C159.722 96.9879 159.542 96.7743 159.561 96.5302C159.581 96.2869 159.786 96.1021 160.034 96.1238L172.125 97.1023C172.366 97.1218 172.546 97.3354 172.527 97.5795C172.509 97.8109 172.317 97.9868 172.09 97.9868Z" fill="#233863"/>
<path d="M173.322 93.0339C173.31 93.0339 173.297 93.0335 173.285 93.0326L157.779 91.7107C157.537 91.6903 157.358 91.4758 157.379 91.2316C157.4 90.9875 157.613 90.8102 157.853 90.827L173.359 92.1489C173.601 92.1693 173.78 92.3838 173.759 92.628C173.74 92.8593 173.548 93.0339 173.322 93.0339Z" fill="#233863"/>
<defs>
<linearGradient id="paint0_linear_31_259" x1="228.055" y1="89.6862" x2="307.319" y2="139.156" gradientUnits="userSpaceOnUse">
<stop stop-color="#29DDFD"/>
<stop offset="1" stop-color="#0062DF"/>
</linearGradient>
<linearGradient id="paint1_linear_31_259" x1="41.8054" y1="155.492" x2="56.877" y2="210.936" gradientUnits="userSpaceOnUse">
<stop stop-color="#29DDFD"/>
<stop offset="1" stop-color="#0062DF"/>
</linearGradient>
<linearGradient id="paint2_linear_31_259" x1="143.793" y1="15.1655" x2="151.262" y2="49.2277" gradientUnits="userSpaceOnUse">
<stop stop-color="#29DDFD"/>
<stop offset="1" stop-color="#0062DF"/>
</linearGradient>
<linearGradient id="paint3_linear_31_259" x1="33.6478" y1="14.338" x2="177.564" y2="117.877" gradientUnits="userSpaceOnUse">
<stop stop-color="#29DDFD"/>
<stop offset="1" stop-color="#0062DF"/>
</linearGradient>
<linearGradient id="paint4_linear_31_259" x1="162.448" y1="19.594" x2="302.123" y2="119.611" gradientUnits="userSpaceOnUse">
<stop stop-color="#29DDFD"/>
<stop offset="1" stop-color="#0062DF"/>
</linearGradient>
<linearGradient id="paint5_linear_31_259" x1="39.4485" y1="18.7391" x2="181.552" y2="221.861" gradientUnits="userSpaceOnUse">
<stop stop-color="#29DDFD"/>
<stop offset="1" stop-color="#0062DF"/>
</linearGradient>
<linearGradient id="paint6_linear_31_259" x1="127.144" y1="9.50992" x2="138.115" y2="21.6164" gradientUnits="userSpaceOnUse">
<stop stop-color="#29DDFD"/>
<stop offset="1" stop-color="#0062DF"/>
</linearGradient>
<linearGradient id="paint7_linear_31_259" x1="280.042" y1="72.2719" x2="304.818" y2="99.6114" gradientUnits="userSpaceOnUse">
<stop stop-color="#29DDFD"/>
<stop offset="1" stop-color="#0062DF"/>
</linearGradient>
<linearGradient id="paint8_linear_31_259" x1="4.37116" y1="110.786" x2="40.8984" y2="115.984" gradientUnits="userSpaceOnUse">
<stop stop-color="#29DDFD"/>
<stop offset="1" stop-color="#0062DF"/>
</linearGradient>
<linearGradient id="paint9_linear_31_259" x1="234.311" y1="24.0993" x2="241.838" y2="32.4047" gradientUnits="userSpaceOnUse">
<stop stop-color="#29DDFD"/>
<stop offset="1" stop-color="#0062DF"/>
</linearGradient>
</defs>
</svg>
