<svg width="29" height="29" viewBox="0 0 29 29" fill="none" xmlns="http://www.w3.org/2000/svg">
<path d="M19.7571 23.9029C19.8233 23.8348 19.9226 23.9917 20.0394 24.0879C20.3731 24.4009 20.6958 24.7376 21.0097 25.072C22.2556 26.3976 23.5759 27.6614 24.8218 28.9858L21.7827 28.9867C19.4245 28.9816 19.8157 29.2593 18.1396 27.5107C17.6387 26.9927 17.4716 26.7776 16.9764 26.2537C17.7047 25.7086 18.1019 25.402 18.6978 24.8909C19.0288 24.6184 19.3598 24.3117 19.5585 24.1073C19.7571 23.9029 19.7571 23.9029 19.7571 23.9029Z" fill="url(#paint0_linear_25_38)"/>
<path fill-rule="evenodd" clip-rule="evenodd" d="M9.13101 1.03532C12.7693 -0.416007 16.8159 -0.338805 20.3993 1.25016C23.8918 2.81453 26.6356 5.74525 28.0251 9.39526C29.03 12.0908 29.264 15.0261 28.6994 17.8542C28.6174 18.2572 28.4624 18.9716 28.3066 19.3415C28.3001 19.3677 28.2933 19.394 28.2862 19.4204C28.2291 19.6316 28.1529 19.8504 28.0706 20.0654C28.0398 20.146 28.0081 20.226 27.9762 20.3049C27.955 20.3575 27.9337 20.4097 27.9126 20.4611C27.8915 20.5125 27.8704 20.5633 27.8498 20.6131C27.8387 20.6398 27.8276 20.6664 27.8164 20.6929C27.727 20.9047 27.6341 21.11 27.5379 21.3096C27.5138 21.3595 27.4895 21.4091 27.465 21.4583C27.4038 21.5814 27.3412 21.7024 27.2772 21.8215C27.2517 21.8692 27.2258 21.9166 27.1998 21.9637C27.0992 22.1457 26.9952 22.3235 26.8879 22.4982C26.7452 22.7303 26.5966 22.957 26.4417 23.1801C26.4116 23.2235 26.3811 23.2669 26.3505 23.3101C26.3199 23.3533 26.289 23.3963 26.2579 23.4393C26.1023 23.6543 25.9408 23.8668 25.7731 24.079C25.6725 24.2063 25.5697 24.3334 25.4645 24.4608C25.4295 24.5033 25.3942 24.5459 25.3588 24.5884C25.2522 24.7161 25.1432 24.8443 25.0321 24.9732L23.4893 23.3815C23.4296 23.3196 23.3599 23.249 23.2858 23.1738C23.119 23.0047 22.9296 22.8127 22.7788 22.6465C22.7285 22.5912 22.6826 22.5386 22.6431 22.4908L22.6006 22.4523C22.1499 22.0394 21.359 21.1599 20.9347 20.7156C18.5444 23.2081 16.4105 25.4117 13.2155 26.8066C7.75119 29.1923 2.99293 25.3037 1.00939 20.1953C-0.376183 16.5991 -0.33381 12.5867 1.12737 9.02239C2.65919 5.37204 5.53871 2.49849 9.13101 1.03532ZM22.1101 7.09647C20.0341 4.98003 17.2799 3.85238 14.3699 3.91091C14.1521 3.91527 13.8288 3.91289 13.6189 3.93701C10.7388 4.19887 8.14056 5.48134 6.26929 7.78108C4.43624 10.0365 3.55006 12.9496 3.80602 15.8782C4.09521 19.194 6.58053 24.1787 10.3916 23.6551C13.5398 23.2224 16.1566 20.346 18.2839 18.1433L18.3869 18.0218C18.3716 17.9034 16.4397 15.9579 16.1585 15.6664C17.4242 15.6758 18.6898 15.6777 19.9556 15.6713C20.5545 15.6709 21.2027 15.6422 21.7962 15.7165C21.9804 15.7395 22.2051 15.8944 22.333 16.0228C22.6626 16.3404 22.6346 16.7579 22.6342 17.1851C22.634 17.5367 22.6334 17.8943 22.633 18.2487L22.6374 21.8126C24.4099 19.977 25.2778 17.4235 25.2706 14.8611C25.2731 11.9411 24.1344 9.14273 22.1101 7.09647Z" fill="url(#paint1_linear_25_38)"/>
<defs>
<linearGradient id="paint0_linear_25_38" x1="-67.5243" y1="-142.221" x2="76.6967" y2="-38.4869" gradientUnits="userSpaceOnUse">
<stop stop-color="#29DDFD"/>
<stop offset="1" stop-color="#0062DF"/>
</linearGradient>
<linearGradient id="paint1_linear_25_38" x1="-1.29102" y1="-1.19247" x2="25.404" y2="28.2653" gradientUnits="userSpaceOnUse">
<stop stop-color="#29DDFD"/>
<stop offset="1" stop-color="#0062DF"/>
</linearGradient>
</defs>
</svg>
