<svg width="26" height="28" viewBox="0 0 26 28" fill="none" xmlns="http://www.w3.org/2000/svg">
<path d="M17.7352 1.5V6.91171C17.7352 7.27053 17.8777 7.61466 18.1315 7.86838C18.3852 8.1221 18.7293 8.26464 19.0881 8.26464H24.4998M17.7352 1.5H8.26485C7.54722 1.5 6.85897 1.78508 6.35152 2.29253C5.84408 2.79997 5.559 3.48822 5.559 4.20586V8.26464M17.7352 1.5L24.4998 8.26464M24.4998 8.26464L24.5 23.1469C24.5 23.8645 24.2149 24.5527 23.7075 25.0602C23.2 25.5676 22.5118 25.8527 21.7941 25.8527H8.26485C7.54722 25.8527 6.85897 25.5676 6.35152 25.0602C5.84408 24.5527 5.559 23.8645 5.559 23.1469V13.6764M5.559 13.6764L1.5 17.7351M5.559 13.6764L9.61757 17.7351" stroke="url(#paint0_linear_47_63)" stroke-width="3" stroke-linecap="round" stroke-linejoin="round"/>
<defs>
<linearGradient id="paint0_linear_47_63" x1="0.476084" y1="0.498627" x2="22.9828" y2="23.955" gradientUnits="userSpaceOnUse">
<stop stop-color="#29DDFD"/>
<stop offset="1" stop-color="#0062DF"/>
</linearGradient>
</defs>
</svg>
