<svg width="21" height="20" viewBox="0 0 21 20" fill="none" xmlns="http://www.w3.org/2000/svg">
<path d="M7.58333 2.17328C3.39354 2.17328 0 5.56683 0 9.75662C0 13.9464 3.39354 17.34 7.58333 17.34C11.7731 17.34 15.1667 13.9464 15.1667 9.75662C15.1667 5.56683 11.7731 2.17328 7.58333 2.17328ZM7.58333 13.0743C7.06198 13.0743 6.63542 12.6478 6.63542 12.1264V8.33474H5.45052C5.06187 8.33474 4.73958 8.01245 4.73958 7.62381C4.73958 7.23516 5.06187 6.91287 5.45052 6.91287H9.71615C10.1048 6.91287 10.4271 7.23516 10.4271 7.62381C10.4271 8.01245 10.1048 8.33474 9.71615 8.33474H8.53125V12.1264C8.53125 12.6478 8.10469 13.0743 7.58333 13.0743ZM18.2474 1.93631L19.9062 2.68516C19.989 2.72286 20.0592 2.78357 20.1083 2.86004C20.1575 2.93652 20.1837 3.02553 20.1837 3.11646C20.1837 3.20739 20.1575 3.29641 20.1083 3.37288C20.0592 3.44935 19.989 3.51006 19.9062 3.54776L18.2474 4.29662L17.4985 5.96495C17.4608 6.0477 17.4001 6.11785 17.3237 6.16705C17.2472 6.21624 17.1582 6.2424 17.0672 6.2424C16.9763 6.2424 16.8873 6.21624 16.8108 6.16705C16.7343 6.11785 16.6736 6.0477 16.6359 5.96495L15.8871 4.3061L14.2187 3.55724C14.136 3.51954 14.0658 3.45883 14.0167 3.38236C13.9675 3.30588 13.9413 3.21687 13.9413 3.12594C13.9413 3.03501 13.9675 2.946 14.0167 2.86952C14.0658 2.79305 14.136 2.73234 14.2187 2.69464L15.8776 1.94578L16.6265 0.277451C16.6642 0.194704 16.7249 0.124548 16.8013 0.0753529C16.8778 0.0261578 16.9668 0 17.0578 0C17.1487 0 17.2377 0.0261578 17.3142 0.0753529C17.3907 0.124548 17.4514 0.194704 17.4891 0.277451L18.2474 1.93631ZM18.2474 15.2071L19.9062 15.956C19.989 15.9937 20.0592 16.0544 20.1083 16.1309C20.1575 16.2074 20.1837 16.2964 20.1837 16.3873C20.1837 16.4782 20.1575 16.5672 20.1083 16.6437C20.0592 16.7202 19.989 16.7809 19.9062 16.8186L18.2474 17.5675L17.4985 19.2358C17.4608 19.3185 17.4001 19.3887 17.3237 19.4379C17.2472 19.4871 17.1582 19.5132 17.0672 19.5132C16.9763 19.5132 16.8873 19.4871 16.8108 19.4379C16.7343 19.3887 16.6736 19.3185 16.6359 19.2358L15.8871 17.5769L14.2187 16.8281C14.136 16.7904 14.0658 16.7297 14.0167 16.6532C13.9675 16.5767 13.9413 16.4877 13.9413 16.3968C13.9413 16.3058 13.9675 16.2168 14.0167 16.1404C14.0658 16.0639 14.136 16.0032 14.2187 15.9655L15.8776 15.2166L16.6265 13.5483C16.6642 13.4655 16.7249 13.3954 16.8013 13.3462C16.8778 13.297 16.9668 13.2708 17.0578 13.2708C17.1487 13.2708 17.2377 13.297 17.3142 13.3462C17.3907 13.3954 17.4514 13.4655 17.4891 13.5483L18.2474 15.2071Z" fill="white"/>
</svg>
